<?xml version="1.0" encoding="utf-8"?>
<!-- Generator: Adobe Illustrator 23.0.3, SVG Export Plug-In . SVG Version: 6.00 Build 0)  -->
<svg version="1.1" id="Layer_1" xmlns="http://www.w3.org/2000/svg" xmlns:xlink="http://www.w3.org/1999/xlink" x="0px" y="0px"
	 viewBox="0 0 790.7 260.47" style="enable-background:new 0 0 790.7 260.47;" xml:space="preserve">
<style type="text/css">
	.st0{fill:#333F49;}
	.st1{font-family:'FarsiSimpleBold';}
	.st2{font-size:202.6144px;}
	.st3{font-family:'SegoeScript';}
	.st4{font-size:163.065px;}
</style>
<g>
	<text transform="matrix(1.1904 0 0 1 -2289.6841 227.8275)" class="st0 st1" style="font-size:558.5623px;">ع</text>
	<g>
		<path class="st0" d="M-1597.02,163.01c1.81,1.38,2.01,3.65,1.98,5.93c-0.95,68.94-103.78,112.19-158.49,103.99
			c-28.52-4.28-68.02-12.48-90.6-53.92c-37.58,34.32-74.82,51.48-111.71,51.48c-24.83,0-45.9-6.58-63.2-19.75
			c-19.36-14.57-29.04-34.2-29.04-58.88c0-47.48,35.41-90.85,106.25-130.1c-13.89-31.5-20.84-57.7-20.84-78.63
			c0-26.32,8.65-47.6,25.96-63.82c16.62-15.75,37.8-23.62,63.54-23.62c19.13,0,35.19,5.64,48.17,16.92
			c13.89,12.22,20.84,28.09,20.84,47.6c0,21.86-9.45,41.49-28.35,58.88c-11.39,10.58-30.06,22.69-56.03,36.32
			c21.63,39.96,44.29,76.51,67.98,109.65c30.06-36.9,45.1-68.17,45.1-93.79c0-18.1-7.98-28.09-23.91-29.97v-9.87h107.61v9.87
			c-14.58,1.18-25.62,4.58-33.14,10.23c-6.61,5.17-17.65,21.98-33.14,50.42c-15.49,28.44-32.34,54.54-50.56,78.27
			c27.33,33.14,128.6,22.89,152.52,22.89c22.19,0,42.55-16.38,50.47-37.62C-1604.31,161.99-1599.99,160.74-1597.02,163.01
			L-1597.02,163.01z M-1857.45,203.49c-33.03-46.31-58.31-87.56-75.84-123.76c-40.99,24.45-61.49,53.71-61.49,87.79
			c0,19.98,6.09,36.79,18.28,50.42c12.18,13.63,27.84,20.45,46.97,20.45C-1909.26,238.4-1885.24,226.76-1857.45,203.49z
			 M-1833.88-41.21c0-12.22-3.7-22.62-11.1-31.2c-7.4-8.58-17.03-12.87-28.87-12.87c-12.53,0-23.18,4.64-31.94,13.93
			c-8.77,9.29-13.15,20.51-13.15,33.67c0,15.75,7.17,41.14,21.52,76.16C-1855.06,17.8-1833.88-8.77-1833.88-41.21z"/>
	</g>
	<text transform="matrix(1.2585 0.2832 -0.2195 0.9756 -1696.8287 180.9892)" class="st0 st3" style="font-size:449.5334px;">i</text>
</g>
<g>
	<g>
		<text transform="matrix(1.1904 0 0 1 -1106.4269 160.5872)" class="st0 st1 st2">ع</text>
		<g>
			<path class="st0" d="M-855.17,137.07c0.66,0.5,0.73,1.33,0.72,2.15c-0.34,25.01-37.65,40.7-57.49,37.72
				c-10.34-1.55-24.68-4.53-32.86-19.56c-13.63,12.45-27.14,18.67-40.52,18.67c-9.01,0-16.65-2.39-22.93-7.16
				c-7.02-5.29-10.53-12.41-10.53-21.36c0-17.22,12.85-32.95,38.54-47.19c-5.04-11.42-7.56-20.93-7.56-28.52
				c0-9.55,3.14-17.27,9.42-23.15c6.03-5.71,13.71-8.57,23.05-8.57c6.94,0,12.76,2.05,17.47,6.14c5.04,4.43,7.56,10.19,7.56,17.27
				c0,7.93-3.43,15.05-10.29,21.36c-4.13,3.84-10.9,8.23-20.32,13.17c7.85,14.5,16.07,27.75,24.66,39.78
				c10.9-13.39,16.36-24.73,16.36-34.02c0-6.56-2.89-10.19-8.67-10.87v-3.58h39.04v3.58c-5.29,0.43-9.29,1.66-12.02,3.71
				c-2.4,1.88-6.4,7.97-12.02,18.29c-5.62,10.32-11.73,19.78-18.34,28.39c9.91,12.02,46.65,8.3,55.32,8.3
				c8.05,0,15.43-5.94,18.31-13.64C-857.81,136.71-856.25,136.25-855.17,137.07L-855.17,137.07z M-949.64,151.76
				c-11.98-16.8-21.15-31.76-27.51-44.89c-14.87,8.87-22.31,19.48-22.31,31.85c0,7.25,2.21,13.35,6.63,18.29
				c4.42,4.95,10.1,7.42,17.04,7.42C-968.43,164.42-959.72,160.2-949.64,151.76z M-941.09,63c0-4.43-1.34-8.21-4.03-11.32
				c-2.69-3.11-6.18-4.67-10.47-4.67c-4.54,0-8.41,1.68-11.59,5.05c-3.18,3.37-4.77,7.44-4.77,12.21c0,5.71,2.6,14.92,7.81,27.63
				C-948.77,84.4-941.09,74.76-941.09,63z"/>
		</g>
		<text transform="matrix(1.2585 0.2832 -0.2195 0.9756 -891.3306 143.5955)" class="st0 st3 st4">i</text>
	</g>
	<g>
		<path class="st0" d="M-756.52,119.22c0,1.41-0.36,2.61-1.08,3.61c-0.72,1-1.65,1.5-2.81,1.5c-0.51,0-0.92-0.14-1.22-0.42
			c-0.39-0.39-0.83-0.91-1.31-1.56c-0.48-0.65-0.98-1.47-1.52-2.45c-1.04-2-1.99-4.11-2.85-6.31c-0.86-2.2-1.55-4.14-2.09-5.83
			c-0.14-0.49-0.29-0.94-0.44-1.35c-0.16-0.4-0.31-0.83-0.46-1.27c-0.16-0.44-0.32-0.91-0.49-1.42c-0.17-0.51-0.35-1.13-0.55-1.87
			c-0.82-3.02-1.41-5.01-1.77-5.96c-0.39,0.49-0.77,0.87-1.14,1.13c-0.37,0.26-0.75,0.46-1.16,0.58c-0.41,0.12-0.83,0.19-1.27,0.21
			c-0.44,0.02-0.91,0.03-1.41,0.03c-0.28,0-0.63,0.07-1.05,0.21c-0.42,0.14-0.88,0.3-1.37,0.47c-0.49,0.18-0.98,0.37-1.46,0.58
			s-0.93,0.39-1.35,0.53c-1.41,0.49-2.83,0.93-4.26,1.32c-1.43,0.39-2.91,0.77-4.43,1.13c-1.52,0.37-3.11,0.72-4.77,1.06
			c-1.66,0.33-3.42,0.7-5.27,1.08c-0.84,0.18-1.65,0.86-2.41,2.06c-0.73,1.23-2.25,3.87-4.56,7.91c-2.25,4.01-4.16,6.95-5.74,8.81
			c-1.55,1.86-3.05,2.8-4.51,2.8c-1.86,0-3.4-0.46-4.64-1.37c-1.41-1.13-2.11-2.32-2.11-3.59c0-0.67,0.3-1.15,0.91-1.45
			c0.6-0.3,1.43-0.57,2.47-0.82c0.34-0.03,1.11-0.9,2.32-2.58c1.15-1.62,2.03-2.96,2.62-4.01c1.18-1.93,2.38-4,3.61-6.2
			c1.22-2.2,2.59-4.67,4.11-7.41c0.73-1.41,1.38-2.62,1.94-3.64c0.56-1.02,1.03-1.88,1.39-2.59c0.39-0.7,0.84-1.49,1.33-2.37
			c0.49-0.88,1.06-1.86,1.71-2.96c0.28-0.49,0.62-1.09,1.01-1.79c0.39-0.7,0.86-1.49,1.39-2.37c0.53-0.91,1.02-1.72,1.46-2.43
			c0.44-0.7,0.81-1.34,1.12-1.9c0.34-0.56,0.77-1.27,1.29-2.11c0.52-0.84,1.13-1.85,1.83-3.01c0.22-0.35,0.67-1.18,1.33-2.48
			c0.66-1.3,1.55-3.09,2.68-5.38c1.58-3.27,2.6-5.66,3.08-7.18c3.29-9.99,5.77-14.98,7.43-14.98c0.73,0,1.32,0.08,1.77,0.24
			c0.45,0.16,0.8,0.42,1.05,0.79s0.42,0.86,0.51,1.48c0.08,0.62,0.13,1.36,0.13,2.24c0,0.6,0,1.13,0,1.58
			c0,0.46-0.01,0.83-0.04,1.11c-0.03,0.56-0.06,1.28-0.08,2.16c-0.03,0.88-0.07,1.92-0.13,3.11c1.41,3.69,2.74,7.67,4.01,11.92
			c0.65,2.15,1.33,4.49,2.05,7.04c0.72,2.55,1.48,5.36,2.3,8.42c0.82,3.03,1.53,5.61,2.15,7.76c0.62,2.15,1.13,3.89,1.52,5.22
			c0.39,1.34,0.87,2.87,1.41,4.59c0.55,1.72,1.2,3.68,1.96,5.86c0.28,0.81,1.34,2.76,3.16,5.86
			C-757.42,115.67-756.52,117.89-756.52,119.22z M-775.21,88.04c-0.51-1.93-1.05-4.02-1.65-6.25c-0.59-2.23-1.2-4.47-1.83-6.7
			c-0.63-2.23-1.28-4.39-1.94-6.46c-0.66-2.08-1.32-3.92-1.96-5.54c-1.58,2.67-3.07,5.24-4.47,7.7c-1.41,2.46-2.76,4.93-4.07,7.41
			c-1.31,2.48-2.6,5.02-3.88,7.62c-1.28,2.6-2.58,5.38-3.9,8.34c0.31,0.14,0.59,0.21,0.84,0.21c0.42,0,0.96-0.04,1.62-0.13
			c0.66-0.09,1.34-0.19,2.03-0.32c0.69-0.12,1.35-0.25,1.98-0.4c0.63-0.14,1.15-0.26,1.54-0.37c0.67-0.21,1.26-0.39,1.75-0.53
			c0.49-0.14,0.96-0.28,1.41-0.42c0.45-0.14,0.93-0.29,1.46-0.45c0.52-0.16,1.15-0.34,1.88-0.55c1.63-0.53,3.25-1.06,4.85-1.61
			C-777.95,89.05-776.51,88.53-775.21,88.04z"/>
		<path class="st0" d="M-710.61,99.07c-2.25,3.9-4.54,7.44-6.86,10.61c-2.32,3.17-4.61,5.87-6.88,8.1c-2.26,2.23-4.47,3.97-6.62,5.2
			c-2.15,1.23-4.16,1.85-6.01,1.85c-3.01,0-5.38-1.62-7.11-4.85c-1.73-3.24-2.6-8-2.6-14.3c0-3.52,0.17-7.39,0.51-11.61
			c0.34-4.22,0.77-8.49,1.31-12.82s1.13-8.58,1.79-12.77c0.66-4.19,1.33-8,2-11.45c0.51-2.64,1.02-4.92,1.54-6.86
			c0.52-1.93,1.08-3.52,1.67-4.75c0.59-1.23,1.23-2.15,1.92-2.74c0.69-0.6,1.47-0.9,2.34-0.9c0.56,0,1.08,0.16,1.54,0.48
			c0.46,0.32,0.87,0.72,1.2,1.21c0.34,0.49,0.6,1.06,0.78,1.71c0.18,0.65,0.27,1.31,0.27,1.98c0,0.63-0.13,1.49-0.4,2.56
			c-0.27,1.07-0.6,2.26-1.01,3.56c-0.41,1.3-0.85,2.67-1.33,4.12c-0.48,1.44-0.94,2.82-1.39,4.14c-0.45,1.32-0.85,2.54-1.2,3.67
			c-0.35,1.13-0.6,2.04-0.74,2.74c-0.42,2.29-0.84,4.95-1.27,7.99c-0.42,3.04-0.81,6.19-1.16,9.44c-0.35,3.25-0.64,6.49-0.87,9.71
			c-0.23,3.22-0.34,6.17-0.34,8.84c0,2.36,0.17,4.3,0.51,5.83c0.34,1.53,0.77,2.74,1.29,3.64c0.52,0.9,1.08,1.53,1.69,1.9
			c0.6,0.37,1.17,0.55,1.71,0.55c0.98,0,2.07-0.32,3.25-0.98c1.18-0.65,2.43-1.56,3.73-2.72c1.31-1.16,2.66-2.52,4.05-4.09
			c1.39-1.56,2.79-3.26,4.2-5.09c1.41-1.83,2.8-3.75,4.18-5.78c1.38-2.02,2.7-4.07,3.97-6.15c0.48-0.81,0.86-1.42,1.14-1.85
			c0.28-0.42,0.55-0.63,0.8-0.63c0.31,0,0.54,0.22,0.7,0.66c0.15,0.44,0.23,1.01,0.23,1.71c0,0.56-0.07,1.19-0.21,1.87
			c-0.14,0.69-0.32,1.39-0.55,2.11c-0.23,0.72-0.49,1.43-0.8,2.14S-710.28,98.43-710.61,99.07z"/>
		<path class="st0" d="M-681.67,105.82c0,0.53-0.16,1.21-0.49,2.06c-0.32,0.84-0.79,1.78-1.39,2.8c-0.61,1.02-1.34,2.08-2.19,3.19
			c-0.86,1.11-1.82,2.16-2.89,3.14c-0.59,0.56-1.36,1.23-2.3,2c-0.94,0.77-2.03,1.5-3.25,2.19c-1.22,0.69-2.57,1.27-4.03,1.74
			c-1.46,0.48-3.04,0.71-4.73,0.71c-1.97,0-3.67-0.49-5.1-1.48s-2.62-2.28-3.54-3.88c-0.93-1.6-1.62-3.41-2.07-5.43
			c-0.45-2.02-0.67-4.07-0.67-6.15c0-2.53,0.15-5.19,0.44-7.97c0.3-2.78,0.63-5.39,0.99-7.83c0.37-2.44,0.7-4.56,1.01-6.36
			c0.31-1.79,0.46-2.97,0.46-3.54c0-0.67,0.05-1.42,0.15-2.27s0.27-1.64,0.53-2.37c0.25-0.74,0.6-1.35,1.03-1.85
			c0.44-0.49,0.98-0.74,1.62-0.74c0.79,0,1.46,0.13,2,0.4c0.55,0.26,1,0.59,1.35,0.98c0.35,0.39,0.61,0.79,0.78,1.21
			c0.17,0.42,0.25,0.81,0.25,1.16c0,1.06-0.22,2.44-0.65,4.14c-0.44,1.71-0.91,3.65-1.43,5.83c-0.52,2.18-1,4.56-1.43,7.15
			c-0.44,2.59-0.65,5.3-0.65,8.15c0,1.41,0.06,2.89,0.19,4.46c0.13,1.57,0.39,3,0.8,4.3c0.41,1.3,1,2.38,1.79,3.24
			c0.79,0.86,1.86,1.29,3.21,1.29c1.12,0,2.28-0.22,3.48-0.66c1.2-0.44,2.36-1,3.48-1.69c1.12-0.69,2.18-1.43,3.16-2.24
			c0.98-0.81,1.84-1.56,2.57-2.27c0.73-0.74,1.4-1.43,2-2.08c0.6-0.65,1.16-1.22,1.67-1.71c0.51-0.49,0.96-0.89,1.35-1.19
			c0.39-0.3,0.75-0.45,1.05-0.45c0.65,0,1.05,0.21,1.2,0.63C-681.75,104.87-681.67,105.33-681.67,105.82z M-696.06,47.36
			c0,0.35-0.06,0.86-0.17,1.53c-0.11,0.67-0.26,1.39-0.44,2.16c-0.18,0.77-0.39,1.54-0.61,2.29c-0.23,0.76-0.44,1.4-0.63,1.93
			c-0.2,0.53-0.52,1.01-0.97,1.45c-0.45,0.44-0.94,0.82-1.48,1.13s-1.07,0.56-1.6,0.74c-0.53,0.18-0.97,0.26-1.31,0.26
			c-0.25,0-0.45-0.09-0.59-0.26c-0.14-0.18-0.25-0.4-0.32-0.69c-0.07-0.28-0.12-0.6-0.15-0.95c-0.03-0.35-0.06-0.69-0.08-1
			l-0.21-1.64c-0.06-0.32-0.13-0.59-0.23-0.82c-0.1-0.23-0.21-0.48-0.32-0.77c-0.11-0.28-0.21-0.62-0.3-1.03
			c-0.08-0.4-0.13-0.94-0.13-1.61c0-0.56,0.15-1.19,0.44-1.87c0.3-0.69,0.7-1.32,1.2-1.9c0.51-0.58,1.1-1.07,1.79-1.48
			c0.69-0.4,1.44-0.61,2.26-0.61c0.2,0,0.51,0.1,0.95,0.29c0.44,0.19,0.87,0.44,1.29,0.74c0.42,0.3,0.79,0.63,1.12,1
			C-696.22,46.65-696.06,47.01-696.06,47.36z"/>
		<path class="st0" d="M-571.42,88.04c0,0.74-0.42,1.9-1.27,3.48c-0.31,0.63-0.7,1.34-1.18,2.11c-0.48,0.77-0.98,1.56-1.5,2.35
			c-0.52,0.79-1.03,1.54-1.54,2.24c-0.51,0.7-0.96,1.3-1.35,1.79c-1.63,2.08-3.36,4.06-5.19,5.96c-1.83,1.9-3.72,3.6-5.67,5.09
			c-1.96,1.5-3.98,2.7-6.08,3.61c-2.1,0.92-4.23,1.39-6.39,1.42c-1.66,0-3.13-0.39-4.41-1.16c-1.28-0.77-2.29-2.02-3.02-3.75
			c-0.73-1.72-1.28-3.66-1.65-5.8c-0.37-2.15-0.66-4.45-0.89-6.91c-0.03-0.39-0.07-0.97-0.13-1.74c-0.06-0.77-0.12-1.63-0.19-2.56
			c-0.07-0.93-0.16-1.89-0.27-2.88c-0.11-0.98-0.24-1.88-0.38-2.69c-0.14-0.81-0.3-1.47-0.49-1.98c-0.18-0.51-0.39-0.77-0.61-0.77
			c-0.87,0-2.07,0.73-3.59,2.19c-1.52,1.46-3.18,3.38-4.98,5.75c-1.8,2.37-3.64,5.06-5.53,8.05c-1.89,2.99-3.64,6.03-5.27,9.13
			c-1.43,2.67-2.74,5.36-3.9,8.05s-2.19,5.04-3.06,7.04c-0.48,0.91-0.99,1.56-1.52,1.93c-0.53,0.37-0.9,0.55-1.1,0.55
			c-0.45,0-0.91-0.13-1.37-0.4s-0.89-0.61-1.27-1.03c-0.38-0.42-0.69-0.91-0.93-1.45c-0.24-0.55-0.36-1.08-0.36-1.61
			c0-0.46,0.06-1.21,0.19-2.24c0.13-1.04,0.27-2.21,0.44-3.51c0.17-1.3,0.34-2.65,0.51-4.04c0.17-1.39,0.31-2.68,0.42-3.88
			c0.2-2.32,0.42-4.87,0.68-7.65c0.25-2.78,0.49-5.58,0.72-8.42c0.22-2.83,0.44-5.6,0.63-8.31c0.2-2.71,0.35-5.15,0.46-7.33
			c0.03-0.7,0.07-1.64,0.13-2.8s0.11-2.44,0.17-3.83c0.06-1.39,0.11-2.86,0.17-4.41c0.06-1.55,0.11-3.05,0.17-4.51
			c0.06-1.46,0.11-2.83,0.15-4.12c0.04-1.28,0.08-2.37,0.11-3.24c0.03-0.98,0.08-1.9,0.15-2.74s0.17-1.68,0.3-2.51
			c0.13-0.83,0.31-1.65,0.55-2.48c0.24-0.83,0.54-1.73,0.91-2.72c0.11-0.32,0.3-0.67,0.55-1.06c0.25-0.39,0.54-0.74,0.87-1.06
			c0.32-0.32,0.67-0.59,1.05-0.82c0.38-0.23,0.77-0.34,1.16-0.34c0.82,0,1.55,0.4,2.21,1.21c0.66,0.81,0.99,1.94,0.99,3.38
			c0,0.46-0.06,1.07-0.19,1.85c-0.13,0.77-0.27,1.57-0.44,2.4c-0.17,0.83-0.33,1.62-0.49,2.37c-0.16,0.76-0.26,1.33-0.32,1.71
			c-0.23,1.44-0.42,3.1-0.59,4.96c-0.17,1.87-0.33,3.76-0.49,5.7c-0.16,1.93-0.29,3.84-0.4,5.72c-0.11,1.88-0.21,3.56-0.29,5.04
			c-0.08,1.69-0.19,3.27-0.32,4.75s-0.25,2.95-0.38,4.41c-0.13,1.46-0.25,2.94-0.36,4.43c-0.11,1.5-0.23,3.1-0.34,4.83
			c-0.2,2.6-0.42,4.9-0.67,6.89c-0.25,1.99-0.38,3.69-0.38,5.09c0,0.21,0.09,0.46,0.27,0.74c0.18,0.28,0.34,0.42,0.49,0.42h0.17
			c0.25-0.39,0.58-0.97,0.97-1.74c0.39-0.77,0.84-1.62,1.35-2.53c0.51-0.91,1.03-1.87,1.58-2.88s1.09-1.93,1.63-2.77
			c0.53-0.84,1.12-1.77,1.75-2.77c0.63-1,1.29-2.01,1.98-3.03c0.69-1.02,1.39-2.04,2.11-3.06c0.72-1.02,1.41-1.97,2.09-2.85
			c0.87-1.09,1.84-2.23,2.91-3.43c1.07-1.2,2.19-2.29,3.35-3.27c1.17-0.98,2.34-1.79,3.52-2.43c1.18-0.63,2.31-0.95,3.38-0.95
			c0.2,0,0.46,0.07,0.78,0.21c0.32,0.14,0.65,0.34,0.97,0.61c0.32,0.26,0.63,0.58,0.91,0.95c0.28,0.37,0.49,0.8,0.63,1.29
			c0.56,1.9,0.97,3.8,1.22,5.7c0.25,1.9,0.48,3.9,0.67,6.02c0.17,1.79,0.35,3.64,0.55,5.54c0.2,1.9,0.45,3.62,0.76,5.17
			c0.31,1.55,0.71,2.81,1.2,3.8c0.49,0.99,1.12,1.48,1.88,1.48c3.46,0,6.78-0.97,9.96-2.9c1.69-1.02,3.14-2,4.37-2.95
			s2.36-1.93,3.42-2.95c1.05-1.02,2.1-2.15,3.14-3.38c1.04-1.23,2.25-2.66,3.63-4.27c2.73-3.13,4.32-4.7,4.77-4.7
			C-571.63,85.88-571.42,86.6-571.42,88.04z"/>
		<path class="st0" d="M-515.13,86.77c0,0.42-0.04,0.92-0.13,1.5c-0.08,0.58-0.2,1.17-0.36,1.77c-0.15,0.6-0.32,1.17-0.51,1.71
			c-0.18,0.55-0.37,0.98-0.57,1.29c-0.17,0.28-0.42,0.66-0.74,1.13c-0.32,0.48-0.68,0.99-1.08,1.56c-0.39,0.56-0.82,1.15-1.29,1.77
			c-0.46,0.62-0.95,1.21-1.46,1.77c-1.74,2-3.45,3.95-5.13,5.83c-1.67,1.88-3.4,3.54-5.17,4.99c-1.77,1.44-3.62,2.59-5.55,3.46
			c-1.93,0.86-4.02,1.28-6.27,1.24c-1.04,0-2.09-0.24-3.14-0.71c-1.05-0.47-2.05-1.15-2.97-2.03c-0.93-0.88-1.73-1.93-2.4-3.17
			c-0.68-1.23-1.15-2.59-1.43-4.06c-0.82,1.06-1.67,2.16-2.57,3.3c-0.9,1.14-1.83,2.29-2.81,3.46c-0.97,1.16-1.98,2.29-3.02,3.38
			c-1.04,1.09-2.11,2.09-3.21,3.01c-0.62,0.49-1.36,1.02-2.21,1.58c-0.86,0.56-1.76,1.08-2.7,1.56c-0.94,0.48-1.88,0.86-2.83,1.16
			c-0.94,0.3-1.79,0.45-2.55,0.45c-1.15,0-2.15-0.45-2.97-1.35c-0.83-0.9-1.52-2-2.07-3.3c-0.55-1.3-0.96-2.69-1.22-4.17
			c-0.27-1.48-0.4-2.8-0.4-3.96c0-2.32,0.27-4.7,0.8-7.12c0.53-2.43,1.23-4.79,2.09-7.1c0.86-2.3,1.81-4.49,2.87-6.57
			c1.05-2.08,2.09-3.92,3.1-5.54c1.07-1.69,2.33-3.37,3.8-5.04c1.46-1.67,2.98-3.17,4.56-4.48c1.58-1.32,3.12-2.38,4.64-3.19
			c1.52-0.81,2.87-1.21,4.05-1.21c0.59,0,1.22,0,1.88,0s1.31,0.04,1.96,0.13c0.65,0.09,1.28,0.23,1.9,0.42
			c0.62,0.19,1.18,0.48,1.69,0.87c0.25,0.21,0.55,0.62,0.89,1.21c0.34,0.6,0.65,1.27,0.95,2c0.3,0.74,0.54,1.48,0.74,2.22
			c0.2,0.74,0.3,1.32,0.3,1.74c0,1.16-0.21,2.71-0.63,4.64c-0.45,2.43-0.87,4.63-1.25,6.62c-0.38,1.99-0.57,4.04-0.57,6.15
			c0,1.2,0.15,2.42,0.46,3.67c0.31,1.25,0.75,2.38,1.33,3.4c0.58,1.02,1.28,1.86,2.11,2.51c0.83,0.65,1.77,0.98,2.81,0.98
			c1.71,0,3.47-0.45,5.27-1.35s3.62-2.13,5.46-3.69c1.84-1.56,3.68-3.38,5.51-5.43c1.83-2.06,3.63-4.25,5.4-6.57
			c0.14-0.21,0.39-0.57,0.74-1.08c0.35-0.51,0.72-1.02,1.1-1.53c0.38-0.51,0.75-0.97,1.12-1.37c0.37-0.4,0.63-0.61,0.8-0.61
			C-515.43,84.61-515.13,85.33-515.13,86.77z M-552.68,82.39c0-0.6-0.03-1.34-0.08-2.22c-0.06-0.88-0.24-1.6-0.55-2.16
			c-0.31-0.56-0.69-0.83-1.14-0.82c-0.45,0.02-0.9,0.03-1.35,0.03c-0.98,0-1.93,0.19-2.85,0.58c-0.91,0.39-1.81,0.92-2.68,1.61
			s-1.71,1.48-2.51,2.37s-1.58,1.84-2.34,2.82c-0.65,0.81-1.33,1.81-2.05,3.01c-0.72,1.2-1.42,2.51-2.11,3.93
			c-0.69,1.42-1.36,2.92-2,4.48c-0.65,1.57-1.21,3.11-1.69,4.64c-0.48,1.53-0.86,3.01-1.14,4.43c-0.28,1.42-0.42,2.72-0.42,3.88
			c0,0.35,0.04,0.82,0.11,1.4c0.07,0.58,0.18,1.14,0.34,1.69c0.15,0.55,0.37,1.01,0.63,1.4c0.27,0.39,0.6,0.58,0.99,0.58
			c1.29,0,2.91-0.51,4.85-1.53c2.64-1.41,5.04-3.33,7.19-5.78c2.15-2.44,3.99-5.27,5.51-8.47
			C-553.78,93.32-552.68,88.02-552.68,82.39z"/>
		<path class="st0" d="M-468.3,86.41c0,1.27-0.37,2.41-1.1,3.43c-0.25,0.35-0.65,0.82-1.18,1.4c-0.54,0.58-1.01,1.13-1.43,1.66
			l-3.88,4.85c-0.73,0.92-1.41,1.73-2.05,2.45c-0.63,0.72-1.19,1.35-1.67,1.87c-0.82,0.84-1.79,1.86-2.93,3.03
			c-1.14,1.18-2.45,2.54-3.95,4.09c-2.93,3.03-5.63,5.51-8.1,7.44c-2.48,1.9-5.13,3.42-7.95,4.56c-2.83,1.14-5.82,1.71-8.97,1.71
			c-1.94,0.07-3.68-0.35-5.21-1.27c-1.53-0.91-2.83-2.15-3.88-3.72c-1.05-1.56-1.86-3.4-2.41-5.51c-0.55-2.11-0.81-4.34-0.78-6.7
			c0-4.68,0.79-9.36,2.38-14.03c1.59-4.68,3.71-9.29,6.35-13.82c1.43-2.39,3.16-4.68,5.19-6.86c2-2.18,3.81-3.27,5.44-3.27
			c0.87,0,1.87,0.92,3,2.74c0.56,0.92,1.1,1.89,1.6,2.93c0.51,1.04,0.97,2.14,1.39,3.3c0.84,2.29,1.27,3.94,1.27,4.96
			c0,1.02-0.25,2.34-0.76,3.96c-0.51,1.62-1.11,2.43-1.81,2.43c-1.01,0-1.86-0.86-2.53-2.59c-0.34-0.88-0.58-1.63-0.74-2.24
			c-0.16-0.61-0.33-1.27-0.53-1.98c-0.65-2.11-1.2-3.62-1.65-4.54c-1.86,0.42-3.4,1.57-4.64,3.43c-0.59,0.92-1.2,2.01-1.83,3.3
			c-0.63,1.28-1.3,2.74-2,4.35c-0.56,1.27-1.08,2.69-1.56,4.27c-0.48,1.58-0.89,3.21-1.22,4.88c-0.34,1.67-0.61,3.34-0.8,5.01
			c-0.2,1.67-0.29,3.23-0.29,4.67c0,2.04,0.7,4.03,2.11,5.96c1.43,1.86,2.98,2.8,4.64,2.8c3.6,0,7.02-0.79,10.25-2.37
			c3.23-1.58,6.34-3.69,9.32-6.33c2.95-2.57,5.95-5.57,8.99-9.02c1.52-1.72,2.96-3.35,4.33-4.88c1.36-1.53,2.66-3,3.9-4.41
			c2.05-2.25,3.76-3.38,5.11-3.38C-468.49,84.98-468.3,85.46-468.3,86.41z"/>
		<path class="st0" d="M-418.63,78.75c0,0.32-0.2,1.2-0.61,2.64c-0.41,1.44-1,3.19-1.77,5.25c-0.77,2.06-1.72,4.32-2.83,6.78
			c-1.11,2.46-2.36,4.85-3.73,7.18c-1.69,2.88-3.36,5.4-5.02,7.55c-1.66,2.15-3.24,3.93-4.75,5.36c-1.5,1.42-2.89,2.5-4.16,3.22
			c-1.27,0.72-2.36,1.08-3.29,1.08c-1.55,0-2.8-0.27-3.75-0.82c-0.96-0.54-1.74-1.37-2.36-2.48s-1.12-2.51-1.5-4.22
			c-0.38-1.71-0.75-3.72-1.12-6.04h-0.59c-1.18,2.25-2.47,4.48-3.86,6.67c-1.39,2.2-2.84,4.17-4.35,5.91
			c-1.5,1.74-3.05,3.16-4.64,4.25c-1.59,1.09-3.16,1.64-4.7,1.64c-0.82,0-1.67-0.18-2.57-0.55c-0.9-0.37-1.73-0.96-2.49-1.77
			c-0.76-0.81-1.39-1.84-1.9-3.09c-0.51-1.25-0.76-2.75-0.76-4.51c0-1.55,0.15-3.31,0.46-5.3c0.31-1.99,0.73-4.06,1.27-6.23
			c0.53-2.16,1.15-4.34,1.83-6.54c0.69-2.2,1.42-4.28,2.19-6.25c0.77-1.97,1.55-3.75,2.34-5.36c0.79-1.6,1.55-2.88,2.28-3.83
			c0.84-1.13,1.83-2.27,2.97-3.43s2.4-2.22,3.78-3.17c1.38-0.95,2.85-1.73,4.43-2.35c1.57-0.62,3.23-0.92,4.98-0.92
			c1.41,0,2.46,0.57,3.16,1.71c0.7,1.14,1.2,2.88,1.48,5.2c0.03,0.21,0.13,0.46,0.32,0.74c0.18,0.28,0.38,0.6,0.59,0.95
			c0.21,0.35,0.4,0.71,0.57,1.08c0.17,0.37,0.25,0.75,0.25,1.13c0,0.56-0.1,1.26-0.29,2.08c-0.2,0.83-0.42,1.76-0.65,2.8
			c-0.24,1.04-0.46,2.16-0.65,3.38c-0.2,1.21-0.29,2.49-0.29,3.83c0,1.83,0.01,3.78,0.04,5.86c0.03,2.08,0.19,3.98,0.49,5.72
			c0.29,1.74,0.79,3.19,1.48,4.35s1.69,1.74,3.02,1.74c0.68,0,1.48-0.35,2.43-1.06c0.94-0.7,1.98-1.69,3.12-2.96
			c1.14-1.27,2.33-2.78,3.59-4.54c1.25-1.76,2.54-3.69,3.86-5.8c1.52-2.43,2.84-4.83,3.97-7.2s2.11-4.48,2.95-6.33
			c0.84-1.85,1.56-3.34,2.15-4.48c0.59-1.14,1.1-1.71,1.52-1.71h0.04c0.48,0.04,0.79,0.21,0.93,0.53c0.14,0.32,0.21,0.72,0.21,1.21
			c0,0.18,0,0.35,0,0.53C-418.59,78.35-418.61,78.54-418.63,78.75z M-452.94,81.18c0-0.35-0.11-0.75-0.32-1.19
			c-0.21-0.44-0.48-0.86-0.8-1.27c-0.32-0.4-0.68-0.75-1.08-1.03c-0.39-0.28-0.76-0.42-1.1-0.42c-0.87,0-1.68,0.18-2.43,0.53
			c-0.75,0.35-1.44,0.8-2.09,1.35c-0.65,0.55-1.24,1.17-1.79,1.87c-0.55,0.7-1.03,1.41-1.46,2.11c-1.01,1.62-2.05,3.6-3.1,5.94
			c-1.05,2.34-2.01,4.79-2.87,7.36c-0.86,2.57-1.56,5.1-2.11,7.6c-0.55,2.5-0.82,4.71-0.82,6.65c0,0.98,0.35,1.83,1.05,2.53
			c0.7,0.7,1.65,1.06,2.83,1.06c0.67,0,1.48-0.38,2.43-1.13c0.94-0.76,1.93-1.76,2.95-3.01c1.03-1.25,2.04-2.66,3.04-4.25
			c1-1.58,1.88-3.22,2.64-4.91c1.43-3.17,2.63-6.36,3.59-9.58C-453.42,88.17-452.94,84.77-452.94,81.18z"/>
		<path class="st0" d="M-389.65,99.07c-2.25,3.9-4.54,7.44-6.86,10.61c-2.32,3.17-4.61,5.87-6.88,8.1c-2.26,2.23-4.47,3.97-6.62,5.2
			c-2.15,1.23-4.16,1.85-6.01,1.85c-3.01,0-5.38-1.62-7.11-4.85c-1.73-3.24-2.6-8-2.6-14.3c0-3.52,0.17-7.39,0.51-11.61
			c0.34-4.22,0.77-8.49,1.31-12.82s1.13-8.58,1.79-12.77c0.66-4.19,1.33-8,2-11.45c0.51-2.64,1.02-4.92,1.54-6.86
			c0.52-1.93,1.08-3.52,1.67-4.75c0.59-1.23,1.23-2.15,1.92-2.74c0.69-0.6,1.47-0.9,2.34-0.9c0.56,0,1.08,0.16,1.54,0.48
			c0.46,0.32,0.87,0.72,1.2,1.21c0.34,0.49,0.6,1.06,0.78,1.71c0.18,0.65,0.27,1.31,0.27,1.98c0,0.63-0.13,1.49-0.4,2.56
			c-0.27,1.07-0.6,2.26-1.01,3.56c-0.41,1.3-0.85,2.67-1.33,4.12c-0.48,1.44-0.94,2.82-1.39,4.14c-0.45,1.32-0.85,2.54-1.2,3.67
			c-0.35,1.13-0.6,2.04-0.74,2.74c-0.42,2.29-0.84,4.95-1.27,7.99c-0.42,3.04-0.81,6.19-1.16,9.44c-0.35,3.25-0.64,6.49-0.87,9.71
			c-0.23,3.22-0.34,6.17-0.34,8.84c0,2.36,0.17,4.3,0.51,5.83c0.34,1.53,0.77,2.74,1.29,3.64c0.52,0.9,1.08,1.53,1.69,1.9
			c0.6,0.37,1.17,0.55,1.71,0.55c0.98,0,2.07-0.32,3.25-0.98c1.18-0.65,2.43-1.56,3.73-2.72c1.31-1.16,2.66-2.52,4.05-4.09
			c1.39-1.56,2.79-3.26,4.2-5.09c1.41-1.83,2.8-3.75,4.18-5.78c1.38-2.02,2.7-4.07,3.97-6.15c0.48-0.81,0.86-1.42,1.14-1.85
			c0.28-0.42,0.55-0.63,0.8-0.63c0.31,0,0.54,0.22,0.7,0.66c0.15,0.44,0.23,1.01,0.23,1.71c0,0.56-0.07,1.19-0.21,1.87
			c-0.14,0.69-0.32,1.39-0.55,2.11c-0.23,0.72-0.49,1.43-0.8,2.14S-389.31,98.43-389.65,99.07z"/>
		<path class="st0" d="M-360.7,105.82c0,0.53-0.16,1.21-0.49,2.06c-0.32,0.84-0.79,1.78-1.39,2.8c-0.61,1.02-1.34,2.08-2.19,3.19
			c-0.86,1.11-1.82,2.16-2.89,3.14c-0.59,0.56-1.36,1.23-2.3,2c-0.94,0.77-2.03,1.5-3.25,2.19c-1.22,0.69-2.57,1.27-4.03,1.74
			c-1.46,0.48-3.04,0.71-4.73,0.71c-1.97,0-3.67-0.49-5.1-1.48s-2.62-2.28-3.54-3.88c-0.93-1.6-1.62-3.41-2.07-5.43
			c-0.45-2.02-0.67-4.07-0.67-6.15c0-2.53,0.15-5.19,0.44-7.97c0.3-2.78,0.63-5.39,0.99-7.83c0.37-2.44,0.7-4.56,1.01-6.36
			c0.31-1.79,0.46-2.97,0.46-3.54c0-0.67,0.05-1.42,0.15-2.27s0.27-1.64,0.53-2.37c0.25-0.74,0.6-1.35,1.03-1.85
			c0.44-0.49,0.98-0.74,1.62-0.74c0.79,0,1.46,0.13,2,0.4c0.55,0.26,1,0.59,1.35,0.98c0.35,0.39,0.61,0.79,0.78,1.21
			c0.17,0.42,0.25,0.81,0.25,1.16c0,1.06-0.22,2.44-0.65,4.14c-0.44,1.71-0.91,3.65-1.43,5.83c-0.52,2.18-1,4.56-1.43,7.15
			c-0.44,2.59-0.65,5.3-0.65,8.15c0,1.41,0.06,2.89,0.19,4.46c0.13,1.57,0.39,3,0.8,4.3c0.41,1.3,1,2.38,1.79,3.24
			c0.79,0.86,1.86,1.29,3.21,1.29c1.12,0,2.28-0.22,3.48-0.66c1.2-0.44,2.36-1,3.48-1.69c1.12-0.69,2.18-1.43,3.16-2.24
			c0.98-0.81,1.84-1.56,2.57-2.27c0.73-0.74,1.4-1.43,2-2.08c0.6-0.65,1.16-1.22,1.67-1.71c0.51-0.49,0.96-0.89,1.35-1.19
			c0.39-0.3,0.75-0.45,1.05-0.45c0.65,0,1.05,0.21,1.2,0.63C-360.78,104.87-360.7,105.33-360.7,105.82z M-375.09,47.36
			c0,0.35-0.06,0.86-0.17,1.53c-0.11,0.67-0.26,1.39-0.44,2.16c-0.18,0.77-0.39,1.54-0.61,2.29c-0.23,0.76-0.44,1.4-0.63,1.93
			c-0.2,0.53-0.52,1.01-0.97,1.45c-0.45,0.44-0.94,0.82-1.48,1.13s-1.07,0.56-1.6,0.74c-0.53,0.18-0.97,0.26-1.31,0.26
			c-0.25,0-0.45-0.09-0.59-0.26c-0.14-0.18-0.25-0.4-0.32-0.69c-0.07-0.28-0.12-0.6-0.15-0.95c-0.03-0.35-0.06-0.69-0.08-1
			l-0.21-1.64c-0.06-0.32-0.13-0.59-0.23-0.82c-0.1-0.23-0.21-0.48-0.32-0.77c-0.11-0.28-0.21-0.62-0.3-1.03
			c-0.08-0.4-0.13-0.94-0.13-1.61c0-0.56,0.15-1.19,0.44-1.87c0.3-0.69,0.7-1.32,1.2-1.9c0.51-0.58,1.1-1.07,1.79-1.48
			c0.69-0.4,1.44-0.61,2.26-0.61c0.2,0,0.51,0.1,0.95,0.29c0.44,0.19,0.87,0.44,1.29,0.74c0.42,0.3,0.79,0.63,1.12,1
			C-375.25,46.65-375.09,47.01-375.09,47.36z"/>
	</g>
	<g>
		<path class="st0" d="M-758.78,172.7h-2.49c-10.29,0-15.43,1.76-15.43,5.29c0,0.85,0.85,1.65,2.55,2.41
			c2.92,1.33,4.5,2.07,4.74,2.24c1.7,1.1,2.55,2.44,2.55,4.02c0,4.06-1.82,9.34-5.45,15.83c-3.26,5.84-7.32,10.69-12.17,14.56
			c-6.08,4.82-12.51,7.24-19.3,7.24c-6.79,0-12.1-1.88-15.94-5.63c-3.63-3.53-5.45-8.17-5.45-13.92c0-5.19,1.56-10.86,4.68-17.01
			c1.97-3.81,5.26-8.97,9.88-15.49c1.12-1.55,1.88-2.33,2.29-2.33c0.78,0,1.17,0.38,1.17,1.14c0,0.34-0.25,0.92-0.76,1.73
			c-3.6,5.61-6.03,9.68-7.28,12.19c-2.58,5.19-3.87,9.7-3.87,13.54c0,3.78,1.85,7.04,5.55,9.77c3.56,2.65,7.65,3.98,12.27,3.98
			c4.96,0,9.67-0.98,14.15-2.94c4.48-1.96,8.2-4.62,11.15-7.98c2.27-2.6,3.41-4.57,3.41-5.92c0-0.56-0.97-1.13-2.9-1.69
			c-2.55-0.71-4.33-1.4-5.35-2.07c-1.93-1.3-2.9-3.15-2.9-5.54c0-4.8,2.21-9.69,6.62-14.68c4.75-5.33,9.89-8,15.43-8h2.85V172.7z
			 M-786.28,229.19c0,1.07-1.12,2.71-3.36,4.93c-2.24,2.21-3.99,3.32-5.24,3.32c-3.26-1.55-5.11-2.33-5.55-2.33
			c-0.31,0-1.32,0.92-3.05,2.75c-1.73,1.83-3.14,2.75-4.23,2.75c-0.88,0-2.43-0.44-4.63-1.31c-2.31-0.93-3.46-1.68-3.46-2.24
			c1.73-1.86,3.09-3.29,4.07-4.27c2.44-2.45,3.89-3.68,4.33-3.68c0.24,0.08,1.43,0.62,3.56,1.61c1.73,0.79,2.82,1.19,3.26,1.19
			c0.37,0,1.64-1.07,3.79-3.2s3.56-3.19,4.2-3.19C-788.38,226.97-786.28,228.2-786.28,229.19z"/>
		<path class="st0" d="M-723.4,172.7h-3.46c-8.86,0-13.93-5.54-15.22-16.63c-3.16,5.39-5.75,9.22-7.79,11.51
			c-3.05,3.41-6.13,5.12-9.22,5.12h-1.99v-9.27h1.38c3.43,0,6.7-1.21,9.83-3.64c2.71-2.09,4.8-4.63,6.26-7.62
			c1.02-2.06,1.7-5.15,2.04-9.27c0.2-3.22,0.39-6.43,0.56-9.65c0.37-5.11,0.98-8.52,1.83-10.24l7.48-9.01
			c-3.94,15.4-5.91,28.45-5.91,39.14c0,6.85,3.53,10.28,10.59,10.28h3.62V172.7z"/>
		<path class="st0" d="M-681.6,142.65c0,0.34-1.15,3-3.46,8c-3.5,0.88-6.45,2.2-8.86,3.98c-4.75,3.58-9.52,7.18-14.31,10.79
			c-7.06,4.85-12.39,7.28-15.99,7.28h-2.14v-9.27h1.58c6.42,0,10.74-1.21,12.98-3.64c-5.16-3.27-7.74-5.19-7.74-5.75
			c0-1.78,3.24-5.28,9.72-10.52c6.48-5.23,10.93-7.85,13.34-7.85c1.19,0,2.53,0.49,4.02,1.46c1.49,0.97,2.24,1.94,2.24,2.9
			c0,1.18-0.7,1.78-2.09,1.78c-0.58,0-1.36-0.2-2.34-0.61c-0.98-0.41-1.68-0.61-2.09-0.61c-1.43,0-3.45,0.69-6.06,2.07
			c-2.75,1.44-4.12,2.67-4.12,3.68c0,0.85,0.83,1.62,2.49,2.33c1.56,0.71,3.17,1.06,4.84,1.06c3.43,0,6.55-0.83,9.37-2.5
			c0.71-0.42,3.19-2.27,7.43-5.54C-682.09,141.76-681.7,142.09-681.6,142.65z"/>
		<path class="st0" d="M-581.96,179.47c0,1.24-0.44,2.62-1.32,4.15c-4.65,8.01-10.74,14.3-18.28,18.87
			c-8.32,5.05-17.79,7.57-28.41,7.57c-7.2,0-13.51-2.09-18.94-6.26c-5.53-4.29-8.3-9.39-8.3-15.32c0-10.44,3.62-20.03,10.84-28.77
			c6.04-7.33,15.17-14.6,27.39-21.79c-1.15-1.47-5.24-2.2-12.27-2.2c-1.97,0-4.02,0.86-6.16,2.58c-0.27,0.23-1.83,1.73-4.68,4.53
			c-0.82-0.25-1.32-0.68-1.53-1.27c5.5-8.21,11.49-12.31,17.97-12.31c3.19,0,6.91,0.25,11.15,0.76c6.04,0.71,9.06,1.66,9.06,2.88
			c0,1.98-1.63,3.85-4.89,5.63c-5.02,2.71-10.05,5.43-15.07,8.17c-4.89,2.91-9.23,6.36-13.03,10.37
			c-7.37,7.73-11.05,14.58-11.05,20.57c0,6.71,2.92,12.05,8.76,16c5.46,3.7,12.32,5.54,20.57,5.54c15.24,0,26.37-5.54,33.4-16.63
			c1.76-2.79,3.12-4.19,4.07-4.19C-582.2,178.32-581.96,178.7-581.96,179.47z M-608.59,168.13c0,0.99-2.99,3.2-8.96,6.64
			c-1.66-1.66-2.94-2.88-3.82-3.64c-2-1.69-3.46-2.54-4.38-2.54v-0.47l9.32-7.36C-611.2,164.04-608.59,166.49-608.59,168.13z"/>
		<path class="st0" d="M-559.15,172.7h-4.07c-3.73,0-6.58-1.03-8.55-3.09c-1.8-1.86-2.7-4.39-2.7-7.58c0-6.69,0.68-14.43,2.04-23.23
			c1.56-9.9,3.46-17.33,5.7-22.3l1.58,0.17c-2.65,11.26-3.97,21.21-3.97,29.88c0,11.26,1.97,16.88,5.91,16.88h4.07V172.7z"/>
		<path class="st0" d="M-518.01,146.76c0,0.76-1.05,1.81-3.16,3.13c-1.76,1.02-3.53,2.05-5.29,3.09
			c-5.57,4.01-11.15,8.01-16.75,12.02c-7.6,5.13-13.73,7.7-18.38,7.7H-562v-9.27h0.71c5.91,0,11.12-1.07,15.63-3.22
			c3.67-1.75,7.81-4.74,12.42-8.97c-1.49-1.1-3.81-2.14-6.95-3.13c-3.14-0.99-5.69-1.48-7.66-1.48c-0.68,0-2.41,0.73-5.19,2.2
			c-0.51,0-0.76-0.28-0.76-0.85c0-1.58,1.44-3.14,4.33-4.7c2.65-1.44,4.97-2.16,6.97-2.16c2.27,0,5.52,0.81,9.75,2.43
			c4.23,1.62,7.53,2.43,9.9,2.43c0.78,0,1.52-0.08,2.21-0.25c0.7-0.17,1.18-0.25,1.45-0.25
			C-518.4,145.49-518.01,145.91-518.01,146.76z"/>
		<path class="st0" d="M-423.82,172.7h-2.49c-10.29,0-15.43,1.76-15.43,5.29c0,0.85,0.85,1.65,2.55,2.41
			c2.92,1.33,4.5,2.07,4.74,2.24c1.7,1.1,2.55,2.44,2.55,4.02c0,4.06-1.82,9.34-5.45,15.83c-3.26,5.84-7.32,10.69-12.17,14.56
			c-6.08,4.82-12.51,7.24-19.3,7.24c-6.79,0-12.1-1.88-15.94-5.63c-3.63-3.53-5.45-8.17-5.45-13.92c0-5.19,1.56-10.86,4.68-17.01
			c1.97-3.81,5.26-8.97,9.88-15.49c1.12-1.55,1.88-2.33,2.29-2.33c0.78,0,1.17,0.38,1.17,1.14c0,0.34-0.25,0.92-0.76,1.73
			c-3.6,5.61-6.03,9.68-7.28,12.19c-2.58,5.19-3.87,9.7-3.87,13.54c0,3.78,1.85,7.04,5.55,9.77c3.56,2.65,7.65,3.98,12.27,3.98
			c4.96,0,9.67-0.98,14.15-2.94c4.48-1.96,8.2-4.62,11.15-7.98c2.27-2.6,3.41-4.57,3.41-5.92c0-0.56-0.97-1.13-2.9-1.69
			c-2.55-0.71-4.33-1.4-5.35-2.07c-1.93-1.3-2.9-3.15-2.9-5.54c0-4.8,2.21-9.69,6.62-14.68c4.75-5.33,9.89-8,15.43-8h2.85V172.7z
			 M-451.31,229.19c0,1.07-1.12,2.71-3.36,4.93c-2.24,2.21-3.99,3.32-5.24,3.32c-3.26-1.55-5.11-2.33-5.55-2.33
			c-0.31,0-1.32,0.92-3.05,2.75c-1.73,1.83-3.14,2.75-4.23,2.75c-0.88,0-2.43-0.44-4.63-1.31c-2.31-0.93-3.46-1.68-3.46-2.24
			c1.73-1.86,3.09-3.29,4.07-4.27c2.44-2.45,3.89-3.68,4.33-3.68c0.24,0.08,1.43,0.62,3.56,1.61c1.73,0.79,2.82,1.19,3.26,1.19
			c0.37,0,1.64-1.07,3.79-3.2s3.56-3.19,4.2-3.19C-453.42,226.97-451.31,228.2-451.31,229.19z"/>
		<path class="st0" d="M-388.43,172.7h-3.46c-8.86,0-13.93-5.54-15.22-16.63c-3.16,5.39-5.75,9.22-7.79,11.51
			c-3.05,3.41-6.13,5.12-9.22,5.12h-1.99v-9.27h1.38c3.43,0,6.7-1.21,9.83-3.64c2.71-2.09,4.8-4.63,6.26-7.62
			c1.02-2.06,1.7-5.15,2.04-9.27c0.2-3.22,0.39-6.43,0.56-9.65c0.37-5.11,0.98-8.52,1.83-10.24l7.48-9.01
			c-3.94,15.4-5.91,28.45-5.91,39.14c0,6.85,3.53,10.28,10.59,10.28h3.62V172.7z"/>
		<path class="st0" d="M-346.63,142.65c0,0.34-1.15,3-3.46,8c-3.5,0.88-6.45,2.2-8.86,3.98c-4.75,3.58-9.52,7.18-14.31,10.79
			c-7.06,4.85-12.39,7.28-15.99,7.28h-2.14v-9.27h1.58c6.42,0,10.74-1.21,12.98-3.64c-5.16-3.27-7.74-5.19-7.74-5.75
			c0-1.78,3.24-5.28,9.72-10.52c6.48-5.23,10.93-7.85,13.34-7.85c1.19,0,2.53,0.49,4.02,1.46c1.49,0.97,2.24,1.94,2.24,2.9
			c0,1.18-0.7,1.78-2.09,1.78c-0.58,0-1.36-0.2-2.34-0.61c-0.98-0.41-1.68-0.61-2.09-0.61c-1.43,0-3.45,0.69-6.06,2.07
			c-2.75,1.44-4.12,2.67-4.12,3.68c0,0.85,0.83,1.62,2.49,2.33c1.56,0.71,3.17,1.06,4.84,1.06c3.43,0,6.55-0.83,9.37-2.5
			c0.71-0.42,3.19-2.27,7.43-5.54C-347.12,141.76-346.73,142.09-346.63,142.65z"/>
	</g>
</g>
<g>
	<g>
		<text transform="matrix(1.1904 0 0 1 9.8522 160.5872)" class="st0 st1 st2">ع</text>
		<g>
			<path class="st0" d="M261.11,137.07c0.66,0.5,0.73,1.33,0.72,2.15c-0.34,25.01-37.65,40.7-57.49,37.72
				c-10.34-1.55-24.68-4.53-32.86-19.56c-13.63,12.45-27.14,18.67-40.52,18.67c-9.01,0-16.65-2.39-22.93-7.16
				c-7.02-5.29-10.53-12.41-10.53-21.36c0-17.22,12.85-32.95,38.54-47.19c-5.04-11.42-7.56-20.93-7.56-28.52
				c0-9.55,3.14-17.27,9.42-23.15c6.03-5.71,13.71-8.57,23.05-8.57c6.94,0,12.76,2.05,17.47,6.14c5.04,4.43,7.56,10.19,7.56,17.27
				c0,7.93-3.43,15.05-10.29,21.36c-4.13,3.84-10.9,8.23-20.32,13.17c7.85,14.5,16.07,27.75,24.66,39.78
				c10.9-13.39,16.36-24.73,16.36-34.02c0-6.56-2.89-10.19-8.67-10.87v-3.58h39.04v3.58c-5.29,0.43-9.29,1.66-12.02,3.71
				c-2.4,1.88-6.4,7.97-12.02,18.29c-5.62,10.32-11.73,19.78-18.34,28.39c9.91,12.02,46.65,8.3,55.32,8.3
				c8.05,0,15.43-5.94,18.31-13.64C258.47,136.71,260.03,136.25,261.11,137.07L261.11,137.07z M166.64,151.76
				c-11.98-16.8-21.15-31.76-27.51-44.89c-14.87,8.87-22.31,19.48-22.31,31.85c0,7.25,2.21,13.35,6.63,18.29
				c4.42,4.95,10.1,7.42,17.04,7.42C147.85,164.42,156.56,160.2,166.64,151.76z M175.19,63c0-4.43-1.34-8.21-4.03-11.32
				c-2.69-3.11-6.18-4.67-10.47-4.67c-4.54,0-8.41,1.68-11.59,5.05c-3.18,3.37-4.77,7.44-4.77,12.21c0,5.71,2.6,14.92,7.81,27.63
				C167.51,84.4,175.19,74.76,175.19,63z"/>
		</g>
		<text transform="matrix(1.2585 0.2832 -0.2195 0.9756 224.9485 143.5955)" class="st0 st3 st4">i</text>
	</g>
	<g>
		<path class="st0" d="M359.76,119.22c0,1.41-0.36,2.61-1.08,3.61c-0.72,1-1.65,1.5-2.81,1.5c-0.51,0-0.92-0.14-1.22-0.42
			c-0.39-0.39-0.83-0.91-1.31-1.56c-0.48-0.65-0.98-1.47-1.52-2.45c-1.04-2-1.99-4.11-2.85-6.31c-0.86-2.2-1.55-4.14-2.09-5.83
			c-0.14-0.49-0.29-0.94-0.44-1.35c-0.16-0.4-0.31-0.83-0.46-1.27c-0.16-0.44-0.32-0.91-0.49-1.42c-0.17-0.51-0.35-1.13-0.55-1.87
			c-0.82-3.02-1.41-5.01-1.77-5.96c-0.39,0.49-0.77,0.87-1.14,1.13c-0.37,0.26-0.75,0.46-1.16,0.58c-0.41,0.12-0.83,0.19-1.27,0.21
			c-0.44,0.02-0.91,0.03-1.41,0.03c-0.28,0-0.63,0.07-1.05,0.21c-0.42,0.14-0.88,0.3-1.37,0.47c-0.49,0.18-0.98,0.37-1.46,0.58
			s-0.93,0.39-1.35,0.53c-1.41,0.49-2.83,0.93-4.26,1.32c-1.43,0.39-2.91,0.77-4.43,1.13c-1.52,0.37-3.11,0.72-4.77,1.06
			c-1.66,0.33-3.42,0.7-5.27,1.08c-0.84,0.18-1.65,0.86-2.41,2.06c-0.73,1.23-2.25,3.87-4.56,7.91c-2.25,4.01-4.16,6.95-5.74,8.81
			c-1.55,1.86-3.05,2.8-4.51,2.8c-1.86,0-3.4-0.46-4.64-1.37c-1.41-1.13-2.11-2.32-2.11-3.59c0-0.67,0.3-1.15,0.91-1.45
			c0.6-0.3,1.43-0.57,2.47-0.82c0.34-0.03,1.11-0.9,2.32-2.58c1.15-1.62,2.03-2.96,2.62-4.01c1.18-1.93,2.38-4,3.61-6.2
			c1.22-2.2,2.59-4.67,4.11-7.41c0.73-1.41,1.38-2.62,1.94-3.64c0.56-1.02,1.03-1.88,1.39-2.59c0.39-0.7,0.84-1.49,1.33-2.37
			c0.49-0.88,1.06-1.86,1.71-2.96c0.28-0.49,0.62-1.09,1.01-1.79c0.39-0.7,0.86-1.49,1.39-2.37c0.53-0.91,1.02-1.72,1.46-2.43
			c0.44-0.7,0.81-1.34,1.12-1.9c0.34-0.56,0.77-1.27,1.29-2.11c0.52-0.84,1.13-1.85,1.83-3.01c0.22-0.35,0.67-1.18,1.33-2.48
			c0.66-1.3,1.55-3.09,2.68-5.38c1.58-3.27,2.6-5.66,3.08-7.18c3.29-9.99,5.77-14.98,7.43-14.98c0.73,0,1.32,0.08,1.77,0.24
			c0.45,0.16,0.8,0.42,1.05,0.79s0.42,0.86,0.51,1.48c0.08,0.62,0.13,1.36,0.13,2.24c0,0.6,0,1.13,0,1.58
			c0,0.46-0.01,0.83-0.04,1.11c-0.03,0.56-0.06,1.28-0.08,2.16c-0.03,0.88-0.07,1.92-0.13,3.11c1.41,3.69,2.74,7.67,4.01,11.92
			c0.65,2.15,1.33,4.49,2.05,7.04c0.72,2.55,1.48,5.36,2.3,8.42c0.82,3.03,1.53,5.61,2.15,7.76c0.62,2.15,1.13,3.89,1.52,5.22
			c0.39,1.34,0.87,2.87,1.41,4.59c0.55,1.72,1.2,3.68,1.96,5.86c0.28,0.81,1.34,2.76,3.16,5.86
			C358.86,115.67,359.76,117.89,359.76,119.22z M341.07,88.04c-0.51-1.93-1.05-4.02-1.65-6.25c-0.59-2.23-1.2-4.47-1.83-6.7
			c-0.63-2.23-1.28-4.39-1.94-6.46c-0.66-2.08-1.32-3.92-1.96-5.54c-1.58,2.67-3.07,5.24-4.47,7.7c-1.41,2.46-2.76,4.93-4.07,7.41
			c-1.31,2.48-2.6,5.02-3.88,7.62c-1.28,2.6-2.58,5.38-3.9,8.34c0.31,0.14,0.59,0.21,0.84,0.21c0.42,0,0.96-0.04,1.62-0.13
			c0.66-0.09,1.34-0.19,2.03-0.32c0.69-0.12,1.35-0.25,1.98-0.4c0.63-0.14,1.15-0.26,1.54-0.37c0.67-0.21,1.26-0.39,1.75-0.53
			c0.49-0.14,0.96-0.28,1.41-0.42c0.45-0.14,0.93-0.29,1.46-0.45c0.52-0.16,1.15-0.34,1.88-0.55c1.63-0.53,3.25-1.06,4.85-1.61
			C338.33,89.05,339.77,88.53,341.07,88.04z"/>
		<path class="st0" d="M405.67,99.07c-2.25,3.9-4.54,7.44-6.86,10.61c-2.32,3.17-4.61,5.87-6.88,8.1c-2.26,2.23-4.47,3.97-6.62,5.2
			c-2.15,1.23-4.16,1.85-6.01,1.85c-3.01,0-5.38-1.62-7.11-4.85c-1.73-3.24-2.6-8-2.6-14.3c0-3.52,0.17-7.39,0.51-11.61
			c0.34-4.22,0.77-8.49,1.31-12.82s1.13-8.58,1.79-12.77c0.66-4.19,1.33-8,2-11.45c0.51-2.64,1.02-4.92,1.54-6.86
			c0.52-1.93,1.08-3.52,1.67-4.75c0.59-1.23,1.23-2.15,1.92-2.74c0.69-0.6,1.47-0.9,2.34-0.9c0.56,0,1.08,0.16,1.54,0.48
			c0.46,0.32,0.87,0.72,1.2,1.21c0.34,0.49,0.6,1.06,0.78,1.71c0.18,0.65,0.27,1.31,0.27,1.98c0,0.63-0.13,1.49-0.4,2.56
			c-0.27,1.07-0.6,2.26-1.01,3.56c-0.41,1.3-0.85,2.67-1.33,4.12c-0.48,1.44-0.94,2.82-1.39,4.14c-0.45,1.32-0.85,2.54-1.2,3.67
			c-0.35,1.13-0.6,2.04-0.74,2.74c-0.42,2.29-0.84,4.95-1.27,7.99c-0.42,3.04-0.81,6.19-1.16,9.44c-0.35,3.25-0.64,6.49-0.87,9.71
			c-0.23,3.22-0.34,6.17-0.34,8.84c0,2.36,0.17,4.3,0.51,5.83c0.34,1.53,0.77,2.74,1.29,3.64c0.52,0.9,1.08,1.53,1.69,1.9
			c0.6,0.37,1.17,0.55,1.71,0.55c0.98,0,2.07-0.32,3.25-0.98c1.18-0.65,2.43-1.56,3.73-2.72c1.31-1.16,2.66-2.52,4.05-4.09
			c1.39-1.56,2.79-3.26,4.2-5.09c1.41-1.83,2.8-3.75,4.18-5.78c1.38-2.02,2.7-4.07,3.97-6.15c0.48-0.81,0.86-1.42,1.14-1.85
			c0.28-0.42,0.55-0.63,0.8-0.63c0.31,0,0.54,0.22,0.7,0.66c0.15,0.44,0.23,1.01,0.23,1.71c0,0.56-0.07,1.19-0.21,1.87
			c-0.14,0.69-0.32,1.39-0.55,2.11c-0.23,0.72-0.49,1.43-0.8,2.14S406,98.43,405.67,99.07z"/>
		<path class="st0" d="M434.61,105.82c0,0.53-0.16,1.21-0.49,2.06c-0.32,0.84-0.79,1.78-1.39,2.8c-0.61,1.02-1.34,2.08-2.19,3.19
			c-0.86,1.11-1.82,2.16-2.89,3.14c-0.59,0.56-1.36,1.23-2.3,2c-0.94,0.77-2.03,1.5-3.25,2.19c-1.22,0.69-2.57,1.27-4.03,1.74
			c-1.46,0.48-3.04,0.71-4.73,0.71c-1.97,0-3.67-0.49-5.1-1.48s-2.62-2.28-3.54-3.88c-0.93-1.6-1.62-3.41-2.07-5.43
			c-0.45-2.02-0.67-4.07-0.67-6.15c0-2.53,0.15-5.19,0.44-7.97c0.3-2.78,0.63-5.39,0.99-7.83c0.37-2.44,0.7-4.56,1.01-6.36
			c0.31-1.79,0.46-2.97,0.46-3.54c0-0.67,0.05-1.42,0.15-2.27s0.27-1.64,0.53-2.37c0.25-0.74,0.6-1.35,1.03-1.85
			c0.44-0.49,0.98-0.74,1.62-0.74c0.79,0,1.46,0.13,2,0.4c0.55,0.26,1,0.59,1.35,0.98c0.35,0.39,0.61,0.79,0.78,1.21
			c0.17,0.42,0.25,0.81,0.25,1.16c0,1.06-0.22,2.44-0.65,4.14c-0.44,1.71-0.91,3.65-1.43,5.83c-0.52,2.18-1,4.56-1.43,7.15
			c-0.44,2.59-0.65,5.3-0.65,8.15c0,1.41,0.06,2.89,0.19,4.46c0.13,1.57,0.39,3,0.8,4.3c0.41,1.3,1,2.38,1.79,3.24
			c0.79,0.86,1.86,1.29,3.21,1.29c1.12,0,2.28-0.22,3.48-0.66c1.2-0.44,2.36-1,3.48-1.69c1.12-0.69,2.18-1.43,3.16-2.24
			c0.98-0.81,1.84-1.56,2.57-2.27c0.73-0.74,1.4-1.43,2-2.08c0.6-0.65,1.16-1.22,1.67-1.71c0.51-0.49,0.96-0.89,1.35-1.19
			c0.39-0.3,0.75-0.45,1.05-0.45c0.65,0,1.05,0.21,1.2,0.63C434.53,104.87,434.61,105.33,434.61,105.82z M420.22,47.36
			c0,0.35-0.06,0.86-0.17,1.53c-0.11,0.67-0.26,1.39-0.44,2.16c-0.18,0.77-0.39,1.54-0.61,2.29c-0.23,0.76-0.44,1.4-0.63,1.93
			c-0.2,0.53-0.52,1.01-0.97,1.45c-0.45,0.44-0.94,0.82-1.48,1.13s-1.07,0.56-1.6,0.74c-0.53,0.18-0.97,0.26-1.31,0.26
			c-0.25,0-0.45-0.09-0.59-0.26c-0.14-0.18-0.25-0.4-0.32-0.69c-0.07-0.28-0.12-0.6-0.15-0.95c-0.03-0.35-0.06-0.69-0.08-1
			l-0.21-1.64c-0.06-0.32-0.13-0.59-0.23-0.82c-0.1-0.23-0.21-0.48-0.32-0.77c-0.11-0.28-0.21-0.62-0.3-1.03
			c-0.08-0.4-0.13-0.94-0.13-1.61c0-0.56,0.15-1.19,0.44-1.87c0.3-0.69,0.7-1.32,1.2-1.9c0.51-0.58,1.1-1.07,1.79-1.48
			c0.69-0.4,1.44-0.61,2.26-0.61c0.2,0,0.51,0.1,0.95,0.29c0.44,0.19,0.87,0.44,1.29,0.74c0.42,0.3,0.79,0.63,1.12,1
			C420.06,46.65,420.22,47.01,420.22,47.36z"/>
		<path class="st0" d="M544.86,88.04c0,0.74-0.42,1.9-1.27,3.48c-0.31,0.63-0.7,1.34-1.18,2.11c-0.48,0.77-0.98,1.56-1.5,2.35
			c-0.52,0.79-1.03,1.54-1.54,2.24c-0.51,0.7-0.96,1.3-1.35,1.79c-1.63,2.08-3.36,4.06-5.19,5.96c-1.83,1.9-3.72,3.6-5.67,5.09
			c-1.96,1.5-3.98,2.7-6.08,3.61c-2.1,0.92-4.23,1.39-6.39,1.42c-1.66,0-3.13-0.39-4.41-1.16c-1.28-0.77-2.29-2.02-3.02-3.75
			c-0.73-1.72-1.28-3.66-1.65-5.8c-0.37-2.15-0.66-4.45-0.89-6.91c-0.03-0.39-0.07-0.97-0.13-1.74c-0.06-0.77-0.12-1.63-0.19-2.56
			c-0.07-0.93-0.16-1.89-0.27-2.88c-0.11-0.98-0.24-1.88-0.38-2.69c-0.14-0.81-0.3-1.47-0.49-1.98c-0.18-0.51-0.39-0.77-0.61-0.77
			c-0.87,0-2.07,0.73-3.59,2.19c-1.52,1.46-3.18,3.38-4.98,5.75c-1.8,2.37-3.64,5.06-5.53,8.05c-1.89,2.99-3.64,6.03-5.27,9.13
			c-1.43,2.67-2.74,5.36-3.9,8.05s-2.19,5.04-3.06,7.04c-0.48,0.91-0.99,1.56-1.52,1.93c-0.53,0.37-0.9,0.55-1.1,0.55
			c-0.45,0-0.91-0.13-1.37-0.4s-0.89-0.61-1.27-1.03c-0.38-0.42-0.69-0.91-0.93-1.45c-0.24-0.55-0.36-1.08-0.36-1.61
			c0-0.46,0.06-1.21,0.19-2.24c0.13-1.04,0.27-2.21,0.44-3.51c0.17-1.3,0.34-2.65,0.51-4.04c0.17-1.39,0.31-2.68,0.42-3.88
			c0.2-2.32,0.42-4.87,0.68-7.65c0.25-2.78,0.49-5.58,0.72-8.42c0.22-2.83,0.44-5.6,0.63-8.31c0.2-2.71,0.35-5.15,0.46-7.33
			c0.03-0.7,0.07-1.64,0.13-2.8s0.11-2.44,0.17-3.83c0.06-1.39,0.11-2.86,0.17-4.41c0.06-1.55,0.11-3.05,0.17-4.51
			c0.06-1.46,0.11-2.83,0.15-4.12c0.04-1.28,0.08-2.37,0.11-3.24c0.03-0.98,0.08-1.9,0.15-2.74s0.17-1.68,0.3-2.51
			c0.13-0.83,0.31-1.65,0.55-2.48c0.24-0.83,0.54-1.73,0.91-2.72c0.11-0.32,0.3-0.67,0.55-1.06c0.25-0.39,0.54-0.74,0.87-1.06
			c0.32-0.32,0.67-0.59,1.05-0.82c0.38-0.23,0.77-0.34,1.16-0.34c0.82,0,1.55,0.4,2.21,1.21c0.66,0.81,0.99,1.94,0.99,3.38
			c0,0.46-0.06,1.07-0.19,1.85c-0.13,0.77-0.27,1.57-0.44,2.4c-0.17,0.83-0.33,1.62-0.49,2.37c-0.16,0.76-0.26,1.33-0.32,1.71
			c-0.23,1.44-0.42,3.1-0.59,4.96c-0.17,1.87-0.33,3.76-0.49,5.7c-0.16,1.93-0.29,3.84-0.4,5.72c-0.11,1.88-0.21,3.56-0.29,5.04
			c-0.08,1.69-0.19,3.27-0.32,4.75s-0.25,2.95-0.38,4.41c-0.13,1.46-0.25,2.94-0.36,4.43c-0.11,1.5-0.23,3.1-0.34,4.83
			c-0.2,2.6-0.42,4.9-0.67,6.89c-0.25,1.99-0.38,3.69-0.38,5.09c0,0.21,0.09,0.46,0.27,0.74c0.18,0.28,0.34,0.42,0.49,0.42h0.17
			c0.25-0.39,0.58-0.97,0.97-1.74c0.39-0.77,0.84-1.62,1.35-2.53c0.51-0.91,1.03-1.87,1.58-2.88s1.09-1.93,1.63-2.77
			c0.53-0.84,1.12-1.77,1.75-2.77c0.63-1,1.29-2.01,1.98-3.03c0.69-1.02,1.39-2.04,2.11-3.06c0.72-1.02,1.41-1.97,2.09-2.85
			c0.87-1.09,1.84-2.23,2.91-3.43c1.07-1.2,2.19-2.29,3.35-3.27c1.17-0.98,2.34-1.79,3.52-2.43c1.18-0.63,2.31-0.95,3.38-0.95
			c0.2,0,0.46,0.07,0.78,0.21c0.32,0.14,0.65,0.34,0.97,0.61c0.32,0.26,0.63,0.58,0.91,0.95c0.28,0.37,0.49,0.8,0.63,1.29
			c0.56,1.9,0.97,3.8,1.22,5.7c0.25,1.9,0.48,3.9,0.67,6.02c0.17,1.79,0.35,3.64,0.55,5.54c0.2,1.9,0.45,3.62,0.76,5.17
			c0.31,1.55,0.71,2.81,1.2,3.8c0.49,0.99,1.12,1.48,1.88,1.48c3.46,0,6.78-0.97,9.96-2.9c1.69-1.02,3.14-2,4.37-2.95
			s2.36-1.93,3.42-2.95c1.05-1.02,2.1-2.15,3.14-3.38c1.04-1.23,2.25-2.66,3.63-4.27c2.73-3.13,4.32-4.7,4.77-4.7
			C544.65,85.88,544.86,86.6,544.86,88.04z"/>
		<path class="st0" d="M601.15,86.77c0,0.42-0.04,0.92-0.13,1.5c-0.08,0.58-0.2,1.17-0.36,1.77c-0.15,0.6-0.32,1.17-0.51,1.71
			c-0.18,0.55-0.37,0.98-0.57,1.29c-0.17,0.28-0.42,0.66-0.74,1.13c-0.32,0.48-0.68,0.99-1.08,1.56c-0.39,0.56-0.82,1.15-1.29,1.77
			c-0.46,0.62-0.95,1.21-1.46,1.77c-1.74,2-3.45,3.95-5.13,5.83c-1.67,1.88-3.4,3.54-5.17,4.99c-1.77,1.44-3.62,2.59-5.55,3.46
			c-1.93,0.86-4.02,1.28-6.27,1.24c-1.04,0-2.09-0.24-3.14-0.71c-1.05-0.47-2.05-1.15-2.97-2.03c-0.93-0.88-1.73-1.93-2.4-3.17
			c-0.68-1.23-1.15-2.59-1.43-4.06c-0.82,1.06-1.67,2.16-2.57,3.3c-0.9,1.14-1.83,2.29-2.81,3.46c-0.97,1.16-1.98,2.29-3.02,3.38
			c-1.04,1.09-2.11,2.09-3.21,3.01c-0.62,0.49-1.36,1.02-2.21,1.58c-0.86,0.56-1.76,1.08-2.7,1.56c-0.94,0.48-1.88,0.86-2.83,1.16
			c-0.94,0.3-1.79,0.45-2.55,0.45c-1.15,0-2.15-0.45-2.97-1.35c-0.83-0.9-1.52-2-2.07-3.3c-0.55-1.3-0.96-2.69-1.22-4.17
			c-0.27-1.48-0.4-2.8-0.4-3.96c0-2.32,0.27-4.7,0.8-7.12c0.53-2.43,1.23-4.79,2.09-7.1c0.86-2.3,1.81-4.49,2.87-6.57
			c1.05-2.08,2.09-3.92,3.1-5.54c1.07-1.69,2.33-3.37,3.8-5.04c1.46-1.67,2.98-3.17,4.56-4.48c1.58-1.32,3.12-2.38,4.64-3.19
			c1.52-0.81,2.87-1.21,4.05-1.21c0.59,0,1.22,0,1.88,0s1.31,0.04,1.96,0.13c0.65,0.09,1.28,0.23,1.9,0.42
			c0.62,0.19,1.18,0.48,1.69,0.87c0.25,0.21,0.55,0.62,0.89,1.21c0.34,0.6,0.65,1.27,0.95,2c0.3,0.74,0.54,1.48,0.74,2.22
			c0.2,0.74,0.3,1.32,0.3,1.74c0,1.16-0.21,2.71-0.63,4.64c-0.45,2.43-0.87,4.63-1.25,6.62c-0.38,1.99-0.57,4.04-0.57,6.15
			c0,1.2,0.15,2.42,0.46,3.67c0.31,1.25,0.75,2.38,1.33,3.4c0.58,1.02,1.28,1.86,2.11,2.51c0.83,0.65,1.77,0.98,2.81,0.98
			c1.71,0,3.47-0.45,5.27-1.35s3.62-2.13,5.46-3.69c1.84-1.56,3.68-3.38,5.51-5.43c1.83-2.06,3.63-4.25,5.4-6.57
			c0.14-0.21,0.39-0.57,0.74-1.08c0.35-0.51,0.72-1.02,1.1-1.53c0.38-0.51,0.75-0.97,1.12-1.37c0.37-0.4,0.63-0.61,0.8-0.61
			C600.85,84.61,601.15,85.33,601.15,86.77z M563.6,82.39c0-0.6-0.03-1.34-0.08-2.22c-0.06-0.88-0.24-1.6-0.55-2.16
			c-0.31-0.56-0.69-0.83-1.14-0.82c-0.45,0.02-0.9,0.03-1.35,0.03c-0.98,0-1.93,0.19-2.85,0.58c-0.91,0.39-1.81,0.92-2.68,1.61
			s-1.71,1.48-2.51,2.37s-1.58,1.84-2.34,2.82c-0.65,0.81-1.33,1.81-2.05,3.01c-0.72,1.2-1.42,2.51-2.11,3.93
			c-0.69,1.42-1.36,2.92-2,4.48c-0.65,1.57-1.21,3.11-1.69,4.64c-0.48,1.53-0.86,3.01-1.14,4.43c-0.28,1.42-0.42,2.72-0.42,3.88
			c0,0.35,0.04,0.82,0.11,1.4c0.07,0.58,0.18,1.14,0.34,1.69c0.15,0.55,0.37,1.01,0.63,1.4c0.27,0.39,0.6,0.58,0.99,0.58
			c1.29,0,2.91-0.51,4.85-1.53c2.64-1.41,5.04-3.33,7.19-5.78c2.15-2.44,3.99-5.27,5.51-8.47C562.5,93.32,563.6,88.02,563.6,82.39z"
			/>
		<path class="st0" d="M647.98,86.41c0,1.27-0.37,2.41-1.1,3.43c-0.25,0.35-0.65,0.82-1.18,1.4c-0.54,0.58-1.01,1.13-1.43,1.66
			l-3.88,4.85c-0.73,0.92-1.41,1.73-2.05,2.45c-0.63,0.72-1.19,1.35-1.67,1.87c-0.82,0.84-1.79,1.86-2.93,3.03
			c-1.14,1.18-2.45,2.54-3.95,4.09c-2.93,3.03-5.63,5.51-8.1,7.44c-2.48,1.9-5.13,3.42-7.95,4.56c-2.83,1.14-5.82,1.71-8.97,1.71
			c-1.94,0.07-3.68-0.35-5.21-1.27c-1.53-0.91-2.83-2.15-3.88-3.72c-1.05-1.56-1.86-3.4-2.41-5.51c-0.55-2.11-0.81-4.34-0.78-6.7
			c0-4.68,0.79-9.36,2.38-14.03c1.59-4.68,3.71-9.29,6.35-13.82c1.43-2.39,3.16-4.68,5.19-6.86c2-2.18,3.81-3.27,5.44-3.27
			c0.87,0,1.87,0.92,3,2.74c0.56,0.92,1.1,1.89,1.6,2.93c0.51,1.04,0.97,2.14,1.39,3.3c0.84,2.29,1.27,3.94,1.27,4.96
			c0,1.02-0.25,2.34-0.76,3.96c-0.51,1.62-1.11,2.43-1.81,2.43c-1.01,0-1.86-0.86-2.53-2.59c-0.34-0.88-0.58-1.63-0.74-2.24
			c-0.16-0.61-0.33-1.27-0.53-1.98c-0.65-2.11-1.2-3.62-1.65-4.54c-1.86,0.42-3.4,1.57-4.64,3.43c-0.59,0.92-1.2,2.01-1.83,3.3
			c-0.63,1.28-1.3,2.74-2,4.35c-0.56,1.27-1.08,2.69-1.56,4.27c-0.48,1.58-0.89,3.21-1.22,4.88c-0.34,1.67-0.61,3.34-0.8,5.01
			c-0.2,1.67-0.29,3.23-0.29,4.67c0,2.04,0.7,4.03,2.11,5.96c1.43,1.86,2.98,2.8,4.64,2.8c3.6,0,7.02-0.79,10.25-2.37
			c3.23-1.58,6.34-3.69,9.32-6.33c2.95-2.57,5.95-5.57,8.99-9.02c1.52-1.72,2.96-3.35,4.33-4.88c1.36-1.53,2.66-3,3.9-4.41
			c2.05-2.25,3.76-3.38,5.11-3.38C647.79,84.98,647.98,85.46,647.98,86.41z"/>
		<path class="st0" d="M697.65,78.75c0,0.32-0.2,1.2-0.61,2.64c-0.41,1.44-1,3.19-1.77,5.25c-0.77,2.06-1.72,4.32-2.83,6.78
			c-1.11,2.46-2.36,4.85-3.73,7.18c-1.69,2.88-3.36,5.4-5.02,7.55c-1.66,2.15-3.24,3.93-4.75,5.36c-1.5,1.42-2.89,2.5-4.16,3.22
			c-1.27,0.72-2.36,1.08-3.29,1.08c-1.55,0-2.8-0.27-3.75-0.82c-0.96-0.54-1.74-1.37-2.36-2.48s-1.12-2.51-1.5-4.22
			c-0.38-1.71-0.75-3.72-1.12-6.04h-0.59c-1.18,2.25-2.47,4.48-3.86,6.67c-1.39,2.2-2.84,4.17-4.35,5.91
			c-1.5,1.74-3.05,3.16-4.64,4.25c-1.59,1.09-3.16,1.64-4.7,1.64c-0.82,0-1.67-0.18-2.57-0.55c-0.9-0.37-1.73-0.96-2.49-1.77
			c-0.76-0.81-1.39-1.84-1.9-3.09c-0.51-1.25-0.76-2.75-0.76-4.51c0-1.55,0.15-3.31,0.46-5.3c0.31-1.99,0.73-4.06,1.27-6.23
			c0.53-2.16,1.15-4.34,1.83-6.54c0.69-2.2,1.42-4.28,2.19-6.25c0.77-1.97,1.55-3.75,2.34-5.36c0.79-1.6,1.55-2.88,2.28-3.83
			c0.84-1.13,1.83-2.27,2.97-3.43s2.4-2.22,3.78-3.17c1.38-0.95,2.85-1.73,4.43-2.35c1.57-0.62,3.23-0.92,4.98-0.92
			c1.41,0,2.46,0.57,3.16,1.71c0.7,1.14,1.2,2.88,1.48,5.2c0.03,0.21,0.13,0.46,0.32,0.74c0.18,0.28,0.38,0.6,0.59,0.95
			c0.21,0.35,0.4,0.71,0.57,1.08c0.17,0.37,0.25,0.75,0.25,1.13c0,0.56-0.1,1.26-0.29,2.08c-0.2,0.83-0.42,1.76-0.65,2.8
			c-0.24,1.04-0.46,2.16-0.65,3.38c-0.2,1.21-0.29,2.49-0.29,3.83c0,1.83,0.01,3.78,0.04,5.86c0.03,2.08,0.19,3.98,0.49,5.72
			c0.29,1.74,0.79,3.19,1.48,4.35s1.69,1.74,3.02,1.74c0.68,0,1.48-0.35,2.43-1.06c0.94-0.7,1.98-1.69,3.12-2.96
			c1.14-1.27,2.33-2.78,3.59-4.54c1.25-1.76,2.54-3.69,3.86-5.8c1.52-2.43,2.84-4.83,3.97-7.2s2.11-4.48,2.95-6.33
			c0.84-1.85,1.56-3.34,2.15-4.48c0.59-1.14,1.1-1.71,1.52-1.71h0.04c0.48,0.04,0.79,0.21,0.93,0.53c0.14,0.32,0.21,0.72,0.21,1.21
			c0,0.18,0,0.35,0,0.53C697.69,78.35,697.67,78.54,697.65,78.75z M663.34,81.18c0-0.35-0.11-0.75-0.32-1.19
			c-0.21-0.44-0.48-0.86-0.8-1.27c-0.32-0.4-0.68-0.75-1.08-1.03c-0.39-0.28-0.76-0.42-1.1-0.42c-0.87,0-1.68,0.18-2.43,0.53
			c-0.75,0.35-1.44,0.8-2.09,1.35c-0.65,0.55-1.24,1.17-1.79,1.87c-0.55,0.7-1.03,1.41-1.46,2.11c-1.01,1.62-2.05,3.6-3.1,5.94
			c-1.05,2.34-2.01,4.79-2.87,7.36c-0.86,2.57-1.56,5.1-2.11,7.6c-0.55,2.5-0.82,4.71-0.82,6.65c0,0.98,0.35,1.83,1.05,2.53
			c0.7,0.7,1.65,1.06,2.83,1.06c0.67,0,1.48-0.38,2.43-1.13c0.94-0.76,1.93-1.76,2.95-3.01c1.03-1.25,2.04-2.66,3.04-4.25
			c1-1.58,1.88-3.22,2.64-4.91c1.43-3.17,2.63-6.36,3.59-9.58C662.86,88.17,663.34,84.77,663.34,81.18z"/>
		<path class="st0" d="M726.63,99.07c-2.25,3.9-4.54,7.44-6.86,10.61c-2.32,3.17-4.61,5.87-6.88,8.1c-2.26,2.23-4.47,3.97-6.62,5.2
			c-2.15,1.23-4.16,1.85-6.01,1.85c-3.01,0-5.38-1.62-7.11-4.85c-1.73-3.24-2.6-8-2.6-14.3c0-3.52,0.17-7.39,0.51-11.61
			c0.34-4.22,0.77-8.49,1.31-12.82s1.13-8.58,1.79-12.77c0.66-4.19,1.33-8,2-11.45c0.51-2.64,1.02-4.92,1.54-6.86
			c0.52-1.93,1.08-3.52,1.67-4.75c0.59-1.23,1.23-2.15,1.92-2.74c0.69-0.6,1.47-0.9,2.34-0.9c0.56,0,1.08,0.16,1.54,0.48
			c0.46,0.32,0.87,0.72,1.2,1.21c0.34,0.49,0.6,1.06,0.78,1.71c0.18,0.65,0.27,1.31,0.27,1.98c0,0.63-0.13,1.49-0.4,2.56
			c-0.27,1.07-0.6,2.26-1.01,3.56c-0.41,1.3-0.85,2.67-1.33,4.12c-0.48,1.44-0.94,2.82-1.39,4.14c-0.45,1.32-0.85,2.54-1.2,3.67
			c-0.35,1.13-0.6,2.04-0.74,2.74c-0.42,2.29-0.84,4.95-1.27,7.99c-0.42,3.04-0.81,6.19-1.16,9.44c-0.35,3.25-0.64,6.49-0.87,9.71
			c-0.23,3.22-0.34,6.17-0.34,8.84c0,2.36,0.17,4.3,0.51,5.83c0.34,1.53,0.77,2.74,1.29,3.64c0.52,0.9,1.08,1.53,1.69,1.9
			c0.6,0.37,1.17,0.55,1.71,0.55c0.98,0,2.07-0.32,3.25-0.98c1.18-0.65,2.43-1.56,3.73-2.72c1.31-1.16,2.66-2.52,4.05-4.09
			c1.39-1.56,2.79-3.26,4.2-5.09c1.41-1.83,2.8-3.75,4.18-5.78c1.38-2.02,2.7-4.07,3.97-6.15c0.48-0.81,0.86-1.42,1.14-1.85
			c0.28-0.42,0.55-0.63,0.8-0.63c0.31,0,0.54,0.22,0.7,0.66c0.15,0.44,0.23,1.01,0.23,1.71c0,0.56-0.07,1.19-0.21,1.87
			c-0.14,0.69-0.32,1.39-0.55,2.11c-0.23,0.72-0.49,1.43-0.8,2.14S726.97,98.43,726.63,99.07z"/>
		<path class="st0" d="M755.58,105.82c0,0.53-0.16,1.21-0.49,2.06c-0.32,0.84-0.79,1.78-1.39,2.8c-0.61,1.02-1.34,2.08-2.19,3.19
			c-0.86,1.11-1.82,2.16-2.89,3.14c-0.59,0.56-1.36,1.23-2.3,2c-0.94,0.77-2.03,1.5-3.25,2.19c-1.22,0.69-2.57,1.27-4.03,1.74
			c-1.46,0.48-3.04,0.71-4.73,0.71c-1.97,0-3.67-0.49-5.1-1.48s-2.62-2.28-3.54-3.88c-0.93-1.6-1.62-3.41-2.07-5.43
			c-0.45-2.02-0.67-4.07-0.67-6.15c0-2.53,0.15-5.19,0.44-7.97c0.3-2.78,0.63-5.39,0.99-7.83c0.37-2.44,0.7-4.56,1.01-6.36
			c0.31-1.79,0.46-2.97,0.46-3.54c0-0.67,0.05-1.42,0.15-2.27s0.27-1.64,0.53-2.37c0.25-0.74,0.6-1.35,1.03-1.85
			c0.44-0.49,0.98-0.74,1.62-0.74c0.79,0,1.46,0.13,2,0.4c0.55,0.26,1,0.59,1.35,0.98c0.35,0.39,0.61,0.79,0.78,1.21
			c0.17,0.42,0.25,0.81,0.25,1.16c0,1.06-0.22,2.44-0.65,4.14c-0.44,1.71-0.91,3.65-1.43,5.83c-0.52,2.18-1,4.56-1.43,7.15
			c-0.44,2.59-0.65,5.3-0.65,8.15c0,1.41,0.06,2.89,0.19,4.46c0.13,1.57,0.39,3,0.8,4.3c0.41,1.3,1,2.38,1.79,3.24
			c0.79,0.86,1.86,1.29,3.21,1.29c1.12,0,2.28-0.22,3.48-0.66c1.2-0.44,2.36-1,3.48-1.69c1.12-0.69,2.18-1.43,3.16-2.24
			c0.98-0.81,1.84-1.56,2.57-2.27c0.73-0.74,1.4-1.43,2-2.08c0.6-0.65,1.16-1.22,1.67-1.71c0.51-0.49,0.96-0.89,1.35-1.19
			c0.39-0.3,0.75-0.45,1.05-0.45c0.65,0,1.05,0.21,1.2,0.63C755.5,104.87,755.58,105.33,755.58,105.82z M741.19,47.36
			c0,0.35-0.06,0.86-0.17,1.53c-0.11,0.67-0.26,1.39-0.44,2.16c-0.18,0.77-0.39,1.54-0.61,2.29c-0.23,0.76-0.44,1.4-0.63,1.93
			c-0.2,0.53-0.52,1.01-0.97,1.45c-0.45,0.44-0.94,0.82-1.48,1.13s-1.07,0.56-1.6,0.74c-0.53,0.18-0.97,0.26-1.31,0.26
			c-0.25,0-0.45-0.09-0.59-0.26c-0.14-0.18-0.25-0.4-0.32-0.69c-0.07-0.28-0.12-0.6-0.15-0.95c-0.03-0.35-0.06-0.69-0.08-1
			l-0.21-1.64c-0.06-0.32-0.13-0.59-0.23-0.82c-0.1-0.23-0.21-0.48-0.32-0.77c-0.11-0.28-0.21-0.62-0.3-1.03
			c-0.08-0.4-0.13-0.94-0.13-1.61c0-0.56,0.15-1.19,0.44-1.87c0.3-0.69,0.7-1.32,1.2-1.9c0.51-0.58,1.1-1.07,1.79-1.48
			c0.69-0.4,1.44-0.61,2.26-0.61c0.2,0,0.51,0.1,0.95,0.29c0.44,0.19,0.87,0.44,1.29,0.74c0.42,0.3,0.79,0.63,1.12,1
			C741.03,46.65,741.19,47.01,741.19,47.36z"/>
	</g>
	<g>
		<path class="st0" d="M357.49,172.7H355c-10.29,0-15.43,1.76-15.43,5.29c0,0.85,0.85,1.65,2.55,2.41c2.92,1.33,4.5,2.07,4.74,2.24
			c1.7,1.1,2.55,2.44,2.55,4.02c0,4.06-1.82,9.34-5.45,15.83c-3.26,5.84-7.32,10.69-12.17,14.56c-6.08,4.82-12.51,7.24-19.3,7.24
			c-6.79,0-12.1-1.88-15.94-5.63c-3.63-3.53-5.45-8.17-5.45-13.92c0-5.19,1.56-10.86,4.68-17.01c1.97-3.81,5.26-8.97,9.88-15.49
			c1.12-1.55,1.88-2.33,2.29-2.33c0.78,0,1.17,0.38,1.17,1.14c0,0.34-0.25,0.92-0.76,1.73c-3.6,5.61-6.03,9.68-7.28,12.19
			c-2.58,5.19-3.87,9.7-3.87,13.54c0,3.78,1.85,7.04,5.55,9.77c3.56,2.65,7.65,3.98,12.27,3.98c4.96,0,9.67-0.98,14.15-2.94
			c4.48-1.96,8.2-4.62,11.15-7.98c2.27-2.6,3.41-4.57,3.41-5.92c0-0.56-0.97-1.13-2.9-1.69c-2.55-0.71-4.33-1.4-5.35-2.07
			c-1.93-1.3-2.9-3.15-2.9-5.54c0-4.8,2.21-9.69,6.62-14.68c4.75-5.33,9.89-8,15.43-8h2.85V172.7z M330,229.19
			c0,1.07-1.12,2.71-3.36,4.93c-2.24,2.21-3.99,3.32-5.24,3.32c-3.26-1.55-5.11-2.33-5.55-2.33c-0.31,0-1.32,0.92-3.05,2.75
			c-1.73,1.83-3.14,2.75-4.23,2.75c-0.88,0-2.43-0.44-4.63-1.31c-2.31-0.93-3.46-1.68-3.46-2.24c1.73-1.86,3.09-3.29,4.07-4.27
			c2.44-2.45,3.89-3.68,4.33-3.68c0.24,0.08,1.43,0.62,3.56,1.61c1.73,0.79,2.82,1.19,3.26,1.19c0.37,0,1.64-1.07,3.79-3.2
			s3.56-3.19,4.2-3.19C327.9,226.97,330,228.2,330,229.19z"/>
		<path class="st0" d="M392.88,172.7h-3.46c-8.86,0-13.93-5.54-15.22-16.63c-3.16,5.39-5.75,9.22-7.79,11.51
			c-3.05,3.41-6.13,5.12-9.22,5.12h-1.99v-9.27h1.38c3.43,0,6.7-1.21,9.83-3.64c2.71-2.09,4.8-4.63,6.26-7.62
			c1.02-2.06,1.7-5.15,2.04-9.27c0.2-3.22,0.39-6.43,0.56-9.65c0.37-5.11,0.98-8.52,1.83-10.24l7.48-9.01
			c-3.94,15.4-5.91,28.45-5.91,39.14c0,6.85,3.53,10.28,10.59,10.28h3.62V172.7z"/>
		<path class="st0" d="M434.68,142.65c0,0.34-1.15,3-3.46,8c-3.5,0.88-6.45,2.2-8.86,3.98c-4.75,3.58-9.52,7.18-14.31,10.79
			c-7.06,4.85-12.39,7.28-15.99,7.28h-2.14v-9.27h1.58c6.42,0,10.74-1.21,12.98-3.64c-5.16-3.27-7.74-5.19-7.74-5.75
			c0-1.78,3.24-5.28,9.72-10.52c6.48-5.23,10.93-7.85,13.34-7.85c1.19,0,2.53,0.49,4.02,1.46c1.49,0.97,2.24,1.94,2.24,2.9
			c0,1.18-0.7,1.78-2.09,1.78c-0.58,0-1.36-0.2-2.34-0.61c-0.98-0.41-1.68-0.61-2.09-0.61c-1.43,0-3.45,0.69-6.06,2.07
			c-2.75,1.44-4.12,2.67-4.12,3.68c0,0.85,0.83,1.62,2.49,2.33c1.56,0.71,3.17,1.06,4.84,1.06c3.43,0,6.55-0.83,9.37-2.5
			c0.71-0.42,3.19-2.27,7.43-5.54C434.19,141.76,434.58,142.09,434.68,142.65z"/>
		<path class="st0" d="M534.32,179.47c0,1.24-0.44,2.62-1.32,4.15c-4.65,8.01-10.74,14.3-18.28,18.87
			c-8.32,5.05-17.79,7.57-28.41,7.57c-7.2,0-13.51-2.09-18.94-6.26c-5.53-4.29-8.3-9.39-8.3-15.32c0-10.44,3.62-20.03,10.84-28.77
			c6.04-7.33,15.17-14.6,27.39-21.79c-1.15-1.47-5.24-2.2-12.27-2.2c-1.97,0-4.02,0.86-6.16,2.58c-0.27,0.23-1.83,1.73-4.68,4.53
			c-0.82-0.25-1.32-0.68-1.53-1.27c5.5-8.21,11.49-12.31,17.97-12.31c3.19,0,6.91,0.25,11.15,0.76c6.04,0.71,9.06,1.66,9.06,2.88
			c0,1.98-1.63,3.85-4.89,5.63c-5.02,2.71-10.05,5.43-15.07,8.17c-4.89,2.91-9.23,6.36-13.03,10.37
			c-7.37,7.73-11.05,14.58-11.05,20.57c0,6.71,2.92,12.05,8.76,16c5.46,3.7,12.32,5.54,20.57,5.54c15.24,0,26.37-5.54,33.4-16.63
			c1.76-2.79,3.12-4.19,4.07-4.19C534.08,178.32,534.32,178.7,534.32,179.47z M507.69,168.13c0,0.99-2.99,3.2-8.96,6.64
			c-1.66-1.66-2.94-2.88-3.82-3.64c-2-1.69-3.46-2.54-4.38-2.54v-0.47l9.32-7.36C505.08,164.04,507.69,166.49,507.69,168.13z"/>
		<path class="st0" d="M557.13,172.7h-4.07c-3.73,0-6.58-1.03-8.55-3.09c-1.8-1.86-2.7-4.39-2.7-7.58c0-6.69,0.68-14.43,2.04-23.23
			c1.56-9.9,3.46-17.33,5.7-22.3l1.58,0.17c-2.65,11.26-3.97,21.21-3.97,29.88c0,11.26,1.97,16.88,5.91,16.88h4.07V172.7z"/>
		<path class="st0" d="M598.27,146.76c0,0.76-1.05,1.81-3.16,3.13c-1.76,1.02-3.53,2.05-5.29,3.09
			c-5.57,4.01-11.15,8.01-16.75,12.02c-7.6,5.13-13.73,7.7-18.38,7.7h-0.41v-9.27h0.71c5.91,0,11.12-1.07,15.63-3.22
			c3.67-1.75,7.81-4.74,12.42-8.97c-1.49-1.1-3.81-2.14-6.95-3.13c-3.14-0.99-5.69-1.48-7.66-1.48c-0.68,0-2.41,0.73-5.19,2.2
			c-0.51,0-0.76-0.28-0.76-0.85c0-1.58,1.44-3.14,4.33-4.7c2.65-1.44,4.97-2.16,6.97-2.16c2.27,0,5.52,0.81,9.75,2.43
			c4.23,1.62,7.53,2.43,9.9,2.43c0.78,0,1.52-0.08,2.21-0.25c0.7-0.17,1.18-0.25,1.45-0.25
			C597.88,145.49,598.27,145.91,598.27,146.76z"/>
		<path class="st0" d="M692.46,172.7h-2.49c-10.29,0-15.43,1.76-15.43,5.29c0,0.85,0.85,1.65,2.55,2.41
			c2.92,1.33,4.5,2.07,4.74,2.24c1.7,1.1,2.55,2.44,2.55,4.02c0,4.06-1.82,9.34-5.45,15.83c-3.26,5.84-7.32,10.69-12.17,14.56
			c-6.08,4.82-12.51,7.24-19.3,7.24c-6.79,0-12.1-1.88-15.94-5.63c-3.63-3.53-5.45-8.17-5.45-13.92c0-5.19,1.56-10.86,4.68-17.01
			c1.97-3.81,5.26-8.97,9.88-15.49c1.12-1.55,1.88-2.33,2.29-2.33c0.78,0,1.17,0.38,1.17,1.14c0,0.34-0.25,0.92-0.76,1.73
			c-3.6,5.61-6.03,9.68-7.28,12.19c-2.58,5.19-3.87,9.7-3.87,13.54c0,3.78,1.85,7.04,5.55,9.77c3.56,2.65,7.65,3.98,12.27,3.98
			c4.96,0,9.67-0.98,14.15-2.94c4.48-1.96,8.2-4.62,11.15-7.98c2.27-2.6,3.41-4.57,3.41-5.92c0-0.56-0.97-1.13-2.9-1.69
			c-2.55-0.71-4.33-1.4-5.35-2.07c-1.93-1.3-2.9-3.15-2.9-5.54c0-4.8,2.21-9.69,6.62-14.68c4.75-5.33,9.89-8,15.43-8h2.85V172.7z
			 M664.97,229.19c0,1.07-1.12,2.71-3.36,4.93c-2.24,2.21-3.99,3.32-5.24,3.32c-3.26-1.55-5.11-2.33-5.55-2.33
			c-0.31,0-1.32,0.92-3.05,2.75c-1.73,1.83-3.14,2.75-4.23,2.75c-0.88,0-2.43-0.44-4.63-1.31c-2.31-0.93-3.46-1.68-3.46-2.24
			c1.73-1.86,3.09-3.29,4.07-4.27c2.44-2.45,3.89-3.68,4.33-3.68c0.24,0.08,1.43,0.62,3.56,1.61c1.73,0.79,2.82,1.19,3.26,1.19
			c0.37,0,1.64-1.07,3.79-3.2s3.56-3.19,4.2-3.19C662.86,226.97,664.97,228.2,664.97,229.19z"/>
		<path class="st0" d="M727.85,172.7h-3.46c-8.86,0-13.93-5.54-15.22-16.63c-3.16,5.39-5.75,9.22-7.79,11.51
			c-3.05,3.41-6.13,5.12-9.22,5.12h-1.99v-9.27h1.38c3.43,0,6.7-1.21,9.83-3.64c2.71-2.09,4.8-4.63,6.26-7.62
			c1.02-2.06,1.7-5.15,2.04-9.27c0.2-3.22,0.39-6.43,0.56-9.65c0.37-5.11,0.98-8.52,1.83-10.24l7.48-9.01
			c-3.94,15.4-5.91,28.45-5.91,39.14c0,6.85,3.53,10.28,10.59,10.28h3.62V172.7z"/>
		<path class="st0" d="M769.65,142.65c0,0.34-1.15,3-3.46,8c-3.5,0.88-6.45,2.2-8.86,3.98c-4.75,3.58-9.52,7.18-14.31,10.79
			c-7.06,4.85-12.39,7.28-15.99,7.28h-2.14v-9.27h1.58c6.42,0,10.74-1.21,12.98-3.64c-5.16-3.27-7.74-5.19-7.74-5.75
			c0-1.78,3.24-5.28,9.72-10.52c6.48-5.23,10.93-7.85,13.34-7.85c1.19,0,2.53,0.49,4.02,1.46c1.49,0.97,2.24,1.94,2.24,2.9
			c0,1.18-0.7,1.78-2.09,1.78c-0.58,0-1.36-0.2-2.34-0.61c-0.98-0.41-1.68-0.61-2.09-0.61c-1.43,0-3.45,0.69-6.06,2.07
			c-2.75,1.44-4.12,2.67-4.12,3.68c0,0.85,0.83,1.62,2.49,2.33c1.56,0.71,3.17,1.06,4.84,1.06c3.43,0,6.55-0.83,9.37-2.5
			c0.71-0.42,3.19-2.27,7.43-5.54C769.15,141.76,769.54,142.09,769.65,142.65z"/>
	</g>
</g>
</svg>
