<?xml version="1.0" encoding="utf-8"?>
<!-- Generator: Adobe Illustrator 23.0.3, SVG Export Plug-In . SVG Version: 6.00 Build 0)  -->
<svg version="1.1" id="Layer_1" xmlns="http://www.w3.org/2000/svg" xmlns:xlink="http://www.w3.org/1999/xlink" x="0px" y="0px"
	 viewBox="0 0 1920 1080" style="enable-background:new 0 0 1920 1080;" xml:space="preserve">
<style type="text/css">
	.st0{fill:#A83E6C;}
	.st1{fill:#F8F7F2;}
	.st2{font-family:'FarsiSimpleBold';}
	.st3{font-size:342.5087px;}
	.st4{font-family:'SegoeScript';}
	.st5{font-size:275.6492px;}
</style>
<rect class="st0" width="1920" height="1080"/>
<g>
	<g>
		<text transform="matrix(1.1904 0 0 1 301.9215 563.1891)" class="st1 st2 st3">ع</text>
		<g>
			<path class="st1" d="M726.66,523.43c1.12,0.85,1.23,2.25,1.22,3.63c-0.57,42.28-63.65,68.8-97.18,63.76
				c-17.48-2.62-41.72-7.66-55.55-33.07c-23.04,21.05-45.88,31.56-68.5,31.56c-15.23,0-28.15-4.04-38.76-12.1
				c-11.87-8.94-17.8-20.98-17.8-36.11c0-29.11,21.72-55.7,65.15-79.77c-8.52-19.3-12.78-35.38-12.78-48.21
				c0-16.14,5.31-29.19,15.92-39.13c10.19-9.65,23.18-14.49,38.96-14.49c11.73,0,21.57,3.47,29.53,10.38
				c8.52,7.49,12.78,17.23,12.78,29.19c0,13.41-5.8,25.44-17.39,36.11c-6.98,6.49-18.43,13.91-34.35,22.26
				c13.27,24.51,27.17,46.91,41.69,67.25c18.43-22.64,27.66-41.8,27.66-57.51c0-11.09-4.89-17.23-14.66-18.38v-6.05h66v6.05
				c-8.94,0.73-15.7,2.81-20.32,6.27c-4.06,3.18-10.82,13.47-20.32,30.92c-9.5,17.45-19.83,33.44-31,47.99
				c16.75,20.32,78.86,14.03,93.52,14.03c13.61,0,26.08-10.04,30.95-23.06C722.2,522.82,724.83,522.05,726.66,523.43L726.66,523.43z
				 M566.96,548.27c-20.25-28.4-35.75-53.69-46.5-75.88c-25.14,14.99-37.71,32.93-37.71,53.84c0,12.26,3.74,22.57,11.21,30.92
				c7.47,8.37,17.07,12.54,28.81,12.54C535.2,569.67,549.92,562.53,566.96,548.27z M581.42,398.22c0-7.49-2.27-13.88-6.81-19.14
				c-4.55-5.26-10.45-7.89-17.7-7.89c-7.67,0-14.22,2.84-19.59,8.54s-8.06,12.58-8.06,20.64c0,9.65,4.4,25.22,13.2,46.71
				C568.43,434.4,581.42,418.1,581.42,398.22z"/>
		</g>
		<text transform="matrix(1.2585 0.2832 -0.2195 0.9756 665.529 534.4628)" class="st1 st4 st5">i</text>
	</g>
	<g>
		<path class="st1" d="M893.42,493.26c0,2.38-0.61,4.41-1.83,6.1c-1.22,1.69-2.79,2.54-4.75,2.54c-0.86,0-1.56-0.24-2.06-0.71
			c-0.66-0.66-1.4-1.54-2.21-2.64c-0.81-1.1-1.66-2.48-2.57-4.14c-1.76-3.38-3.36-6.95-4.82-10.67c-1.45-3.72-2.62-7-3.53-9.86
			c-0.24-0.83-0.49-1.59-0.74-2.28c-0.27-0.68-0.52-1.4-0.78-2.15c-0.27-0.74-0.54-1.54-0.83-2.4c-0.29-0.86-0.59-1.91-0.93-3.16
			c-1.39-5.11-2.38-8.47-2.99-10.08c-0.66,0.83-1.3,1.47-1.93,1.91c-0.63,0.44-1.27,0.78-1.96,0.98c-0.69,0.2-1.4,0.32-2.15,0.35
			c-0.74,0.03-1.54,0.05-2.38,0.05c-0.47,0-1.07,0.12-1.77,0.35c-0.71,0.24-1.49,0.51-2.32,0.79c-0.83,0.3-1.66,0.63-2.47,0.98
			c-0.81,0.36-1.57,0.66-2.28,0.9c-2.38,0.83-4.78,1.57-7.2,2.23c-2.42,0.66-4.92,1.3-7.49,1.91c-2.57,0.63-5.26,1.22-8.06,1.79
			c-2.81,0.56-5.78,1.18-8.91,1.83c-1.42,0.3-2.79,1.45-4.07,3.48c-1.23,2.08-3.8,6.54-7.71,13.37c-3.8,6.78-7.03,11.75-9.7,14.89
			c-2.62,3.14-5.16,4.73-7.62,4.73c-3.14,0-5.75-0.78-7.84-2.32c-2.38-1.91-3.57-3.92-3.57-6.07c0-1.13,0.51-1.94,1.54-2.45
			c1.01-0.51,2.42-0.96,4.18-1.39c0.57-0.05,1.88-1.52,3.92-4.36c1.94-2.74,3.43-5,4.43-6.78c1.99-3.26,4.02-6.76,6.1-10.48
			c2.06-3.72,4.38-7.89,6.95-12.53c1.23-2.38,2.33-4.43,3.28-6.15s1.74-3.18,2.35-4.38c0.66-1.18,1.42-2.52,2.25-4.01
			c0.83-1.49,1.79-3.14,2.89-5c0.47-0.83,1.05-1.84,1.71-3.03c0.66-1.18,1.45-2.52,2.35-4.01c0.9-1.54,1.72-2.91,2.47-4.11
			c0.74-1.18,1.37-2.27,1.89-3.21c0.57-0.95,1.3-2.15,2.18-3.57s1.91-3.13,3.09-5.09c0.37-0.59,1.13-1.99,2.25-4.19
			c1.12-2.2,2.62-5.22,4.53-9.09c2.67-5.53,4.4-9.57,5.21-12.14c5.56-16.89,9.75-25.32,12.56-25.32c1.23,0,2.23,0.14,2.99,0.41
			c0.76,0.27,1.35,0.71,1.77,1.34c0.42,0.63,0.71,1.45,0.86,2.5c0.14,1.05,0.22,2.3,0.22,3.79c0,1.01,0,1.91,0,2.67
			c0,0.78-0.02,1.4-0.07,1.88c-0.05,0.95-0.1,2.16-0.14,3.65c-0.05,1.49-0.12,3.25-0.22,5.26c2.38,6.24,4.63,12.97,6.78,20.15
			c1.1,3.63,2.25,7.59,3.47,11.9c1.22,4.31,2.5,9.06,3.89,14.23c1.39,5.12,2.59,9.48,3.63,13.12c1.05,3.63,1.91,6.58,2.57,8.82
			c0.66,2.27,1.47,4.85,2.38,7.76c0.93,2.91,2.03,6.22,3.31,9.91c0.47,1.37,2.27,4.67,5.34,9.91
			C891.9,487.26,893.42,491.01,893.42,493.26z M861.83,440.55c-0.86-3.26-1.77-6.8-2.79-10.57c-1-3.77-2.03-7.56-3.09-11.33
			c-1.07-3.77-2.16-7.42-3.28-10.92c-1.12-3.52-2.23-6.63-3.31-9.37c-2.67,4.51-5.19,8.86-7.56,13.02
			c-2.38,4.16-4.67,8.33-6.88,12.53c-2.21,4.19-4.4,8.49-6.56,12.88c-2.16,4.4-4.36,9.09-6.59,14.1c0.52,0.24,1,0.35,1.42,0.35
			c0.71,0,1.62-0.07,2.74-0.22s2.27-0.32,3.43-0.54c1.17-0.2,2.28-0.42,3.35-0.68c1.07-0.24,1.94-0.44,2.6-0.63
			c1.13-0.35,2.13-0.66,2.96-0.9s1.62-0.47,2.38-0.71c0.76-0.24,1.57-0.49,2.47-0.76c0.88-0.27,1.94-0.57,3.18-0.93
			c2.76-0.9,5.49-1.79,8.2-2.72C857.2,442.26,859.63,441.38,861.83,440.55z"/>
		<path class="st1" d="M971.03,459.2c-3.8,6.59-7.67,12.58-11.6,17.94s-7.79,9.92-11.63,13.69c-3.82,3.77-7.56,6.71-11.19,8.79
			c-3.63,2.08-7.03,3.13-10.16,3.13c-5.09,0-9.09-2.74-12.02-8.2c-2.92-5.48-4.4-13.52-4.4-24.17c0-5.95,0.29-12.49,0.86-19.63
			c0.57-7.13,1.3-14.35,2.21-21.67c0.91-7.32,1.91-14.5,3.03-21.59c1.12-7.08,2.25-13.52,3.38-19.36c0.86-4.46,1.72-8.32,2.6-11.6
			c0.88-3.26,1.83-5.95,2.82-8.03c1-2.08,2.08-3.63,3.25-4.63c1.17-1.01,2.48-1.52,3.96-1.52c0.95,0,1.83,0.27,2.6,0.81
			c0.78,0.54,1.47,1.22,2.03,2.05c0.57,0.83,1.01,1.79,1.32,2.89c0.3,1.1,0.46,2.21,0.46,3.35c0,1.06-0.22,2.52-0.68,4.33
			c-0.46,1.81-1.01,3.82-1.71,6.02c-0.69,2.2-1.44,4.51-2.25,6.96c-0.81,2.43-1.59,4.77-2.35,7c-0.76,2.23-1.44,4.29-2.03,6.2
			c-0.59,1.91-1.01,3.45-1.25,4.63c-0.71,3.87-1.42,8.37-2.15,13.51c-0.71,5.14-1.37,10.46-1.96,15.96
			c-0.59,5.49-1.08,10.97-1.47,16.41s-0.57,10.43-0.57,14.94c0,3.99,0.29,7.27,0.86,9.86c0.57,2.59,1.3,4.63,2.18,6.15
			c0.88,1.52,1.83,2.59,2.86,3.21c1.01,0.63,1.98,0.93,2.89,0.93c1.66,0,3.5-0.54,5.49-1.66c1.99-1.1,4.11-2.64,6.31-4.6
			c2.21-1.96,4.5-4.26,6.85-6.91c2.35-2.64,4.72-5.51,7.1-8.6c2.38-3.09,4.73-6.34,7.07-9.77c2.33-3.41,4.56-6.88,6.71-10.4
			c0.81-1.37,1.45-2.4,1.93-3.13c0.47-0.71,0.93-1.06,1.35-1.06c0.52,0,0.91,0.37,1.18,1.12c0.25,0.74,0.39,1.71,0.39,2.89
			c0,0.95-0.12,2.01-0.35,3.16c-0.24,1.17-0.54,2.35-0.93,3.57c-0.39,1.22-0.83,2.42-1.35,3.62
			C972.15,456.98,971.59,458.11,971.03,459.2z"/>
		<path class="st1" d="M1019.95,470.61c0,0.9-0.27,2.05-0.83,3.48c-0.54,1.42-1.34,3.01-2.35,4.73c-1.03,1.72-2.27,3.52-3.7,5.39
			c-1.45,1.88-3.08,3.65-4.89,5.31c-1,0.95-2.3,2.08-3.89,3.38s-3.43,2.54-5.49,3.7c-2.06,1.17-4.34,2.15-6.81,2.94
			c-2.47,0.81-5.14,1.2-8,1.2c-3.33,0-6.2-0.83-8.62-2.5c-2.42-1.67-4.43-3.85-5.98-6.56c-1.57-2.7-2.74-5.76-3.5-9.18
			s-1.13-6.88-1.13-10.4c0-4.28,0.25-8.77,0.74-13.47c0.51-4.7,1.07-9.11,1.67-13.24c0.63-4.12,1.18-7.71,1.71-10.75
			c0.52-3.03,0.78-5.02,0.78-5.98c0-1.13,0.08-2.4,0.25-3.84c0.17-1.44,0.46-2.77,0.9-4.01c0.42-1.25,1.01-2.28,1.74-3.13
			c0.74-0.83,1.66-1.25,2.74-1.25c1.34,0,2.47,0.22,3.38,0.68c0.93,0.44,1.69,1,2.28,1.66c0.59,0.66,1.03,1.34,1.32,2.05
			c0.29,0.71,0.42,1.37,0.42,1.96c0,1.79-0.37,4.12-1.1,7c-0.74,2.89-1.54,6.17-2.42,9.86c-0.88,3.69-1.69,7.71-2.42,12.09
			c-0.74,4.38-1.1,8.96-1.1,13.78c0,2.38,0.1,4.89,0.32,7.54c0.22,2.65,0.66,5.07,1.35,7.27c0.69,2.2,1.69,4.02,3.03,5.48
			c1.34,1.45,3.14,2.18,5.43,2.18c1.89,0,3.85-0.37,5.88-1.12s3.99-1.69,5.88-2.86s3.69-2.42,5.34-3.79
			c1.66-1.37,3.11-2.64,4.34-3.84c1.23-1.25,2.37-2.42,3.38-3.52s1.96-2.06,2.82-2.89s1.62-1.5,2.28-2.01s1.27-0.76,1.77-0.76
			c1.1,0,1.77,0.36,2.03,1.06C1019.82,469,1019.95,469.78,1019.95,470.61z M995.63,371.78c0,0.59-0.1,1.45-0.29,2.59
			c-0.19,1.13-0.44,2.35-0.74,3.65c-0.3,1.3-0.66,2.6-1.03,3.87c-0.39,1.28-0.74,2.37-1.06,3.26c-0.34,0.9-0.88,1.71-1.64,2.45
			c-0.76,0.74-1.59,1.39-2.5,1.91c-0.91,0.52-1.81,0.95-2.7,1.25c-0.9,0.3-1.64,0.44-2.21,0.44c-0.42,0-0.76-0.15-1-0.44
			c-0.24-0.3-0.42-0.68-0.54-1.17c-0.12-0.47-0.2-1.01-0.25-1.61c-0.05-0.59-0.1-1.17-0.14-1.69l-0.35-2.77
			c-0.1-0.54-0.22-1-0.39-1.39c-0.17-0.39-0.35-0.81-0.54-1.3c-0.19-0.47-0.35-1.05-0.51-1.74c-0.14-0.68-0.22-1.59-0.22-2.72
			c0-0.95,0.25-2.01,0.74-3.16c0.51-1.17,1.18-2.23,2.03-3.21c0.86-0.98,1.86-1.81,3.03-2.5c1.17-0.68,2.43-1.03,3.82-1.03
			c0.34,0,0.86,0.17,1.61,0.49c0.74,0.32,1.47,0.74,2.18,1.25s1.34,1.06,1.89,1.69C995.36,370.58,995.63,371.19,995.63,371.78z"/>
		<path class="st1" d="M1206.32,440.55c0,1.25-0.71,3.21-2.15,5.88c-0.52,1.06-1.18,2.27-1.99,3.57c-0.81,1.3-1.66,2.64-2.54,3.97
			c-0.88,1.34-1.74,2.6-2.6,3.79c-0.86,1.18-1.62,2.2-2.28,3.03c-2.76,3.52-5.68,6.86-8.77,10.08c-3.09,3.21-6.29,6.09-9.58,8.6
			c-3.31,2.54-6.73,4.56-10.28,6.1c-3.55,1.56-7.15,2.35-10.8,2.4c-2.81,0-5.29-0.66-7.45-1.96c-2.16-1.3-3.87-3.41-5.11-6.34
			c-1.23-2.91-2.16-6.19-2.79-9.8c-0.63-3.63-1.12-7.52-1.5-11.68c-0.05-0.66-0.12-1.64-0.22-2.94c-0.1-1.3-0.2-2.76-0.32-4.33
			c-0.12-1.57-0.27-3.19-0.46-4.87c-0.19-1.66-0.41-3.18-0.64-4.55s-0.51-2.48-0.83-3.35c-0.3-0.86-0.66-1.3-1.03-1.3
			c-1.47,0-3.5,1.23-6.07,3.7s-5.38,5.71-8.42,9.72c-3.04,4.01-6.15,8.55-9.35,13.61c-3.19,5.05-6.15,10.19-8.91,15.43
			c-2.42,4.51-4.63,9.06-6.59,13.61c-1.96,4.55-3.7,8.52-5.17,11.9c-0.81,1.54-1.67,2.64-2.57,3.26c-0.9,0.63-1.52,0.93-1.86,0.93
			c-0.76,0-1.54-0.22-2.32-0.68s-1.5-1.03-2.15-1.74c-0.64-0.71-1.17-1.54-1.57-2.45c-0.41-0.93-0.61-1.83-0.61-2.72
			c0-0.78,0.1-2.05,0.32-3.79c0.22-1.76,0.46-3.74,0.74-5.93c0.29-2.2,0.57-4.48,0.86-6.83c0.29-2.35,0.52-4.53,0.71-6.56
			c0.34-3.92,0.71-8.23,1.15-12.93c0.42-4.7,0.83-9.43,1.22-14.23c0.37-4.78,0.74-9.47,1.07-14.05c0.34-4.58,0.59-8.71,0.78-12.39
			c0.05-1.18,0.12-2.77,0.22-4.73c0.1-1.96,0.19-4.12,0.29-6.47c0.1-2.35,0.19-4.83,0.29-7.45c0.1-2.62,0.19-5.16,0.29-7.62
			s0.19-4.78,0.25-6.96c0.07-2.16,0.14-4.01,0.19-5.48c0.05-1.66,0.14-3.21,0.25-4.63c0.12-1.42,0.29-2.84,0.51-4.24
			c0.22-1.4,0.52-2.79,0.93-4.19c0.41-1.4,0.91-2.92,1.54-4.6c0.19-0.54,0.51-1.13,0.93-1.79s0.91-1.25,1.47-1.79
			c0.54-0.54,1.13-1,1.77-1.39c0.64-0.39,1.3-0.57,1.96-0.57c1.39,0,2.62,0.68,3.74,2.05c1.12,1.37,1.67,3.28,1.67,5.71
			c0,0.78-0.1,1.81-0.32,3.13c-0.22,1.3-0.46,2.65-0.74,4.06c-0.29,1.4-0.56,2.74-0.83,4.01c-0.27,1.28-0.44,2.25-0.54,2.89
			c-0.39,2.43-0.71,5.24-1,8.38c-0.29,3.16-0.56,6.36-0.83,9.64c-0.27,3.26-0.49,6.49-0.68,9.67c-0.19,3.18-0.35,6.02-0.49,8.52
			c-0.14,2.86-0.32,5.53-0.54,8.03c-0.22,2.5-0.42,4.99-0.64,7.45c-0.22,2.47-0.42,4.97-0.61,7.49c-0.19,2.54-0.39,5.24-0.57,8.16
			c-0.34,4.4-0.71,8.28-1.13,11.65c-0.42,3.36-0.64,6.24-0.64,8.6c0,0.35,0.15,0.78,0.46,1.25c0.3,0.47,0.57,0.71,0.83,0.71h0.29
			c0.42-0.66,0.98-1.64,1.64-2.94s1.42-2.74,2.28-4.28c0.86-1.54,1.74-3.16,2.67-4.87c0.93-1.71,1.84-3.26,2.76-4.68
			c0.9-1.42,1.89-2.99,2.96-4.68c1.06-1.69,2.18-3.4,3.35-5.12s2.35-3.45,3.57-5.17c1.22-1.72,2.38-3.33,3.53-4.82
			c1.47-1.84,3.11-3.77,4.92-5.8c1.81-2.03,3.7-3.87,5.66-5.53c1.98-1.66,3.96-3.03,5.95-4.11c1.99-1.07,3.9-1.61,5.71-1.61
			c0.34,0,0.78,0.12,1.32,0.35c0.54,0.24,1.1,0.57,1.64,1.03c0.54,0.44,1.06,0.98,1.54,1.61c0.47,0.63,0.83,1.35,1.06,2.18
			c0.95,3.21,1.64,6.42,2.06,9.64c0.42,3.21,0.81,6.59,1.13,10.18c0.29,3.03,0.59,6.15,0.93,9.37c0.34,3.21,0.76,6.12,1.28,8.74
			c0.52,2.62,1.2,4.75,2.03,6.42c0.83,1.67,1.89,2.5,3.18,2.5c5.85,0,11.46-1.64,16.84-4.9c2.86-1.72,5.31-3.38,7.39-4.99
			c2.08-1.61,3.99-3.26,5.78-4.99c1.77-1.72,3.55-3.63,5.31-5.71c1.76-2.08,3.8-4.5,6.14-7.22c4.61-5.29,7.3-7.95,8.06-7.95
			C1205.97,436.9,1206.32,438.12,1206.32,440.55z"/>
		<path class="st1" d="M1301.48,438.4c0,0.71-0.07,1.56-0.22,2.54c-0.14,0.98-0.34,1.98-0.61,2.99c-0.25,1.01-0.54,1.98-0.86,2.89
			c-0.3,0.93-0.63,1.66-0.96,2.18c-0.29,0.47-0.71,1.12-1.25,1.91c-0.54,0.81-1.15,1.67-1.83,2.64c-0.66,0.95-1.39,1.94-2.18,2.99
			c-0.78,1.05-1.61,2.05-2.47,2.99c-2.94,3.38-5.83,6.68-8.67,9.86c-2.82,3.18-5.75,5.98-8.74,8.44c-2.99,2.43-6.12,4.38-9.38,5.85
			c-3.26,1.45-6.8,2.16-10.6,2.1c-1.76,0-3.53-0.41-5.31-1.2c-1.77-0.79-3.47-1.94-5.02-3.43c-1.57-1.49-2.92-3.26-4.06-5.36
			c-1.15-2.08-1.94-4.38-2.42-6.86c-1.39,1.79-2.82,3.65-4.34,5.58c-1.52,1.93-3.09,3.87-4.75,5.85c-1.64,1.96-3.35,3.87-5.11,5.71
			c-1.76,1.84-3.57,3.53-5.43,5.09c-1.05,0.83-2.3,1.72-3.74,2.67c-1.45,0.95-2.98,1.83-4.56,2.64c-1.59,0.81-3.18,1.45-4.78,1.96
			c-1.59,0.51-3.03,0.76-4.31,0.76c-1.94,0-3.63-0.76-5.02-2.28c-1.4-1.52-2.57-3.38-3.5-5.58c-0.93-2.2-1.62-4.55-2.06-7.05
			c-0.46-2.5-0.68-4.73-0.68-6.69c0-3.92,0.46-7.95,1.35-12.04c0.9-4.11,2.08-8.1,3.53-12c1.45-3.89,3.06-7.59,4.85-11.11
			c1.77-3.52,3.53-6.63,5.24-9.37c1.81-2.86,3.94-5.7,6.42-8.52c2.47-2.82,5.04-5.36,7.71-7.57c2.67-2.23,5.27-4.02,7.84-5.39
			c2.57-1.37,4.85-2.05,6.85-2.05c1,0,2.06,0,3.18,0c1.12,0,2.21,0.07,3.31,0.22c1.1,0.15,2.16,0.39,3.21,0.71
			c1.05,0.32,1.99,0.81,2.86,1.47c0.42,0.36,0.93,1.05,1.5,2.05c0.57,1.01,1.1,2.15,1.61,3.38c0.51,1.25,0.91,2.5,1.25,3.75
			c0.34,1.25,0.51,2.23,0.51,2.94c0,1.96-0.35,4.58-1.06,7.84c-0.76,4.11-1.47,7.83-2.11,11.19c-0.64,3.36-0.96,6.83-0.96,10.4
			c0,2.03,0.25,4.09,0.78,6.2c0.52,2.11,1.27,4.02,2.25,5.75s2.16,3.14,3.57,4.24c1.4,1.1,2.99,1.66,4.75,1.66
			c2.89,0,5.87-0.76,8.91-2.28c3.04-1.52,6.12-3.6,9.23-6.24c3.11-2.64,6.22-5.71,9.31-9.18c3.09-3.48,6.14-7.18,9.13-11.11
			c0.24-0.36,0.66-0.96,1.25-1.83c0.59-0.86,1.22-1.72,1.86-2.59s1.27-1.64,1.89-2.32s1.06-1.03,1.35-1.03
			C1300.97,434.75,1301.48,435.97,1301.48,438.4z M1238,431c0-1.01-0.05-2.27-0.14-3.75c-0.1-1.49-0.41-2.7-0.93-3.65
			s-1.17-1.4-1.93-1.39c-0.76,0.03-1.52,0.05-2.28,0.05c-1.66,0-3.26,0.32-4.82,0.98c-1.54,0.66-3.06,1.56-4.53,2.72
			s-2.89,2.5-4.24,4.01c-1.35,1.5-2.67,3.11-3.96,4.77c-1.1,1.37-2.25,3.06-3.47,5.09c-1.22,2.03-2.4,4.24-3.57,6.64
			s-2.3,4.94-3.38,7.57c-1.1,2.65-2.05,5.26-2.86,7.84c-0.81,2.59-1.45,5.09-1.93,7.49c-0.47,2.4-0.71,4.6-0.71,6.56
			c0,0.59,0.07,1.39,0.19,2.37c0.12,0.98,0.3,1.93,0.57,2.86c0.25,0.93,0.63,1.71,1.06,2.37c0.46,0.66,1.01,0.98,1.67,0.98
			c2.18,0,4.92-0.86,8.2-2.59c4.46-2.38,8.52-5.63,12.15-9.77c3.63-4.12,6.74-8.91,9.31-14.32C1236.14,449.48,1238,440.52,1238,431z
			"/>
		<path class="st1" d="M1380.64,437.79c0,2.15-0.63,4.07-1.86,5.8c-0.42,0.59-1.1,1.39-1.99,2.37c-0.91,0.98-1.71,1.91-2.42,2.81
			l-6.56,8.2c-1.23,1.56-2.38,2.92-3.47,4.14c-1.07,1.22-2.01,2.28-2.82,3.16c-1.39,1.42-3.03,3.14-4.95,5.12
			c-1.93,1.99-4.14,4.29-6.68,6.91c-4.95,5.12-9.52,9.31-13.69,12.58c-4.19,3.21-8.67,5.78-13.44,7.71
			c-4.78,1.93-9.84,2.89-15.16,2.89c-3.28,0.12-6.22-0.59-8.81-2.15c-2.59-1.54-4.78-3.63-6.56-6.29c-1.78-2.64-3.14-5.75-4.07-9.31
			c-0.93-3.57-1.37-7.34-1.32-11.33c0-7.91,1.34-15.82,4.02-23.72c2.69-7.91,6.27-15.7,10.73-23.36c2.42-4.04,5.34-7.91,8.77-11.6
			c3.38-3.69,6.44-5.53,9.2-5.53c1.47,0,3.16,1.56,5.07,4.63c0.95,1.56,1.86,3.19,2.7,4.95c0.86,1.76,1.64,3.62,2.35,5.58
			c1.42,3.87,2.15,6.66,2.15,8.38c0,1.72-0.42,3.96-1.28,6.69c-0.86,2.74-1.88,4.11-3.06,4.11c-1.71,0-3.14-1.45-4.28-4.38
			c-0.57-1.49-0.98-2.76-1.25-3.79c-0.27-1.03-0.56-2.15-0.9-3.35c-1.1-3.57-2.03-6.12-2.79-7.67c-3.14,0.71-5.75,2.65-7.84,5.8
			c-1,1.56-2.03,3.4-3.09,5.58c-1.06,2.16-2.2,4.63-3.38,7.35c-0.95,2.15-1.83,4.55-2.64,7.22s-1.5,5.43-2.06,8.25
			c-0.57,2.82-1.03,5.65-1.35,8.47c-0.34,2.82-0.49,5.46-0.49,7.89c0,3.45,1.18,6.81,3.57,10.08c2.42,3.14,5.04,4.73,7.84,4.73
			c6.09,0,11.87-1.34,17.33-4.01c5.46-2.67,10.72-6.24,15.76-10.7c4.99-4.34,10.06-9.42,15.2-15.25c2.57-2.91,5-5.66,7.32-8.25
			c2.3-2.59,4.5-5.07,6.59-7.45c3.47-3.8,6.36-5.71,8.64-5.71C1380.32,435.38,1380.64,436.19,1380.64,437.79z"/>
		<path class="st1" d="M1464.61,424.85c0,0.54-0.34,2.03-1.03,4.46c-0.69,2.43-1.69,5.39-2.99,8.87c-1.3,3.48-2.91,7.3-4.78,11.46
			s-3.99,8.2-6.31,12.14c-2.86,4.87-5.68,9.13-8.49,12.76c-2.81,3.63-5.48,6.64-8.03,9.06c-2.54,2.4-4.89,4.23-7.03,5.44
			c-2.15,1.22-3.99,1.83-5.56,1.83c-2.62,0-4.73-0.46-6.34-1.39c-1.62-0.91-2.94-2.32-3.99-4.19s-1.89-4.24-2.54-7.13
			c-0.64-2.89-1.27-6.29-1.89-10.21h-1c-1.99,3.8-4.18,7.57-6.53,11.28c-2.35,3.72-4.8,7.05-7.35,9.99
			c-2.54,2.94-5.16,5.34-7.84,7.18c-2.69,1.84-5.34,2.77-7.95,2.77c-1.39,0-2.82-0.3-4.34-0.93c-1.52-0.63-2.92-1.62-4.21-2.99
			s-2.35-3.11-3.21-5.22c-0.86-2.11-1.28-4.65-1.28-7.62c0-2.62,0.25-5.6,0.78-8.96s1.23-6.86,2.15-10.53
			c0.9-3.65,1.94-7.34,3.09-11.06c1.17-3.72,2.4-7.24,3.7-10.57c1.3-3.33,2.62-6.34,3.96-9.06c1.34-2.7,2.62-4.87,3.85-6.47
			c1.42-1.91,3.09-3.84,5.02-5.8c1.93-1.96,4.06-3.75,6.39-5.36c2.33-1.61,4.82-2.92,7.49-3.97c2.65-1.05,5.46-1.56,8.42-1.56
			c2.38,0,4.16,0.96,5.34,2.89c1.18,1.93,2.03,4.87,2.5,8.79c0.05,0.36,0.22,0.78,0.54,1.25c0.3,0.47,0.64,1.01,1,1.61
			c0.35,0.59,0.68,1.2,0.96,1.83c0.29,0.63,0.42,1.27,0.42,1.91c0,0.95-0.17,2.13-0.49,3.52c-0.34,1.4-0.71,2.98-1.1,4.73
			c-0.41,1.76-0.78,3.65-1.1,5.71c-0.34,2.05-0.49,4.21-0.49,6.47c0,3.09,0.02,6.39,0.07,9.91c0.05,3.52,0.32,6.73,0.83,9.67
			c0.49,2.94,1.34,5.39,2.5,7.35s2.86,2.94,5.11,2.94c1.15,0,2.5-0.59,4.11-1.79c1.59-1.18,3.35-2.86,5.27-5s3.94-4.7,6.07-7.67
			c2.11-2.98,4.29-6.24,6.53-9.8c2.57-4.11,4.8-8.16,6.71-12.17c1.91-4.01,3.57-7.57,4.99-10.7s2.64-5.65,3.63-7.57
			c1-1.93,1.86-2.89,2.57-2.89h0.07c0.81,0.07,1.34,0.36,1.57,0.9c0.24,0.54,0.35,1.22,0.35,2.05c0,0.3,0,0.59,0,0.9
			C1464.67,424.17,1464.64,424.49,1464.61,424.85z M1406.61,428.95c0-0.59-0.19-1.27-0.54-2.01c-0.36-0.74-0.81-1.45-1.35-2.15
			c-0.54-0.68-1.15-1.27-1.83-1.74c-0.66-0.47-1.28-0.71-1.86-0.71c-1.47,0-2.84,0.3-4.11,0.9s-2.43,1.35-3.53,2.28
			c-1.1,0.93-2.1,1.98-3.03,3.16c-0.93,1.18-1.74,2.38-2.47,3.57c-1.71,2.74-3.47,6.09-5.24,10.04c-1.77,3.96-3.4,8.1-4.85,12.44
			c-1.45,4.34-2.64,8.62-3.57,12.85c-0.93,4.23-1.39,7.96-1.39,11.24c0,1.66,0.59,3.09,1.78,4.28c1.18,1.18,2.79,1.79,4.78,1.79
			c1.13,0,2.5-0.64,4.11-1.91c1.59-1.28,3.26-2.98,4.99-5.09c1.74-2.11,3.45-4.5,5.14-7.18c1.69-2.67,3.18-5.44,4.46-8.3
			c2.42-5.36,4.45-10.75,6.07-16.19C1405.8,440.77,1406.61,435.02,1406.61,428.95z"/>
		<path class="st1" d="M1513.6,459.2c-3.8,6.59-7.67,12.58-11.6,17.94c-3.92,5.36-7.79,9.92-11.63,13.69
			c-3.82,3.77-7.56,6.71-11.19,8.79c-3.63,2.08-7.03,3.13-10.16,3.13c-5.09,0-9.09-2.74-12.02-8.2c-2.92-5.48-4.4-13.52-4.4-24.17
			c0-5.95,0.29-12.49,0.86-19.63c0.57-7.13,1.3-14.35,2.21-21.67c0.91-7.32,1.91-14.5,3.03-21.59c1.12-7.08,2.25-13.52,3.38-19.36
			c0.86-4.46,1.72-8.32,2.6-11.6c0.88-3.26,1.83-5.95,2.82-8.03c1-2.08,2.08-3.63,3.25-4.63c1.17-1.01,2.48-1.52,3.96-1.52
			c0.95,0,1.83,0.27,2.6,0.81c0.78,0.54,1.47,1.22,2.03,2.05c0.57,0.83,1.01,1.79,1.32,2.89c0.3,1.1,0.46,2.21,0.46,3.35
			c0,1.06-0.22,2.52-0.68,4.33c-0.46,1.81-1.01,3.82-1.71,6.02c-0.69,2.2-1.44,4.51-2.25,6.96c-0.81,2.43-1.59,4.77-2.35,7
			c-0.76,2.23-1.44,4.29-2.03,6.2s-1.01,3.45-1.25,4.63c-0.71,3.87-1.42,8.37-2.15,13.51c-0.71,5.14-1.37,10.46-1.96,15.96
			c-0.59,5.49-1.08,10.97-1.47,16.41c-0.39,5.44-0.57,10.43-0.57,14.94c0,3.99,0.29,7.27,0.86,9.86c0.57,2.59,1.3,4.63,2.18,6.15
			c0.88,1.52,1.83,2.59,2.86,3.21c1.01,0.63,1.98,0.93,2.89,0.93c1.66,0,3.5-0.54,5.49-1.66c1.99-1.1,4.11-2.64,6.31-4.6
			c2.21-1.96,4.5-4.26,6.85-6.91c2.35-2.64,4.72-5.51,7.1-8.6c2.38-3.09,4.73-6.34,7.07-9.77c2.33-3.41,4.56-6.88,6.71-10.4
			c0.81-1.37,1.45-2.4,1.93-3.13c0.47-0.71,0.93-1.06,1.35-1.06c0.52,0,0.91,0.37,1.18,1.12c0.25,0.74,0.39,1.71,0.39,2.89
			c0,0.95-0.12,2.01-0.36,3.16c-0.24,1.17-0.54,2.35-0.93,3.57c-0.39,1.22-0.83,2.42-1.35,3.62
			C1514.71,456.98,1514.17,458.11,1513.6,459.2z"/>
		<path class="st1" d="M1562.53,470.61c0,0.9-0.27,2.05-0.83,3.48c-0.54,1.42-1.34,3.01-2.35,4.73c-1.03,1.72-2.27,3.52-3.7,5.39
			c-1.45,1.88-3.08,3.65-4.89,5.31c-1,0.95-2.3,2.08-3.89,3.38s-3.43,2.54-5.49,3.7c-2.06,1.17-4.34,2.15-6.81,2.94
			c-2.47,0.81-5.14,1.2-8,1.2c-3.33,0-6.2-0.83-8.62-2.5c-2.42-1.67-4.43-3.85-5.98-6.56c-1.57-2.7-2.74-5.76-3.5-9.18
			s-1.13-6.88-1.13-10.4c0-4.28,0.25-8.77,0.74-13.47c0.51-4.7,1.07-9.11,1.67-13.24c0.63-4.12,1.18-7.71,1.71-10.75
			c0.52-3.03,0.78-5.02,0.78-5.98c0-1.13,0.08-2.4,0.25-3.84c0.17-1.44,0.46-2.77,0.9-4.01c0.42-1.25,1.01-2.28,1.74-3.13
			c0.74-0.83,1.66-1.25,2.74-1.25c1.34,0,2.47,0.22,3.38,0.68c0.93,0.44,1.69,1,2.28,1.66c0.59,0.66,1.03,1.34,1.32,2.05
			c0.29,0.71,0.42,1.37,0.42,1.96c0,1.79-0.37,4.12-1.1,7c-0.74,2.89-1.54,6.17-2.42,9.86c-0.88,3.69-1.69,7.71-2.42,12.09
			c-0.74,4.38-1.1,8.96-1.1,13.78c0,2.38,0.1,4.89,0.32,7.54c0.22,2.65,0.66,5.07,1.35,7.27c0.69,2.2,1.69,4.02,3.03,5.48
			c1.34,1.45,3.14,2.18,5.43,2.18c1.89,0,3.85-0.37,5.88-1.12c2.03-0.74,3.99-1.69,5.88-2.86s3.69-2.42,5.34-3.79
			c1.66-1.37,3.11-2.64,4.34-3.84c1.23-1.25,2.37-2.42,3.38-3.52c1.01-1.1,1.96-2.06,2.82-2.89s1.62-1.5,2.28-2.01
			c0.66-0.51,1.27-0.76,1.77-0.76c1.1,0,1.77,0.36,2.03,1.06C1562.4,469,1562.53,469.78,1562.53,470.61z M1538.21,371.78
			c0,0.59-0.1,1.45-0.29,2.59s-0.44,2.35-0.74,3.65c-0.3,1.3-0.66,2.6-1.03,3.87c-0.39,1.28-0.74,2.37-1.07,3.26
			c-0.34,0.9-0.88,1.71-1.64,2.45c-0.76,0.74-1.59,1.39-2.5,1.91c-0.91,0.52-1.81,0.95-2.7,1.25c-0.9,0.3-1.64,0.44-2.21,0.44
			c-0.42,0-0.76-0.15-1-0.44c-0.24-0.3-0.42-0.68-0.54-1.17c-0.12-0.47-0.2-1.01-0.25-1.61c-0.05-0.59-0.1-1.17-0.14-1.69
			l-0.36-2.77c-0.1-0.54-0.22-1-0.39-1.39c-0.17-0.39-0.35-0.81-0.54-1.3c-0.19-0.47-0.36-1.05-0.51-1.74
			c-0.14-0.68-0.22-1.59-0.22-2.72c0-0.95,0.25-2.01,0.74-3.16c0.51-1.17,1.18-2.23,2.03-3.21c0.86-0.98,1.86-1.81,3.03-2.5
			c1.17-0.68,2.43-1.03,3.82-1.03c0.34,0,0.86,0.17,1.61,0.49c0.74,0.32,1.47,0.74,2.18,1.25s1.34,1.06,1.89,1.69
			C1537.94,370.58,1538.21,371.19,1538.21,371.78z"/>
	</g>
	<g>
		<path class="st1" d="M889.58,583.66h-4.21c-17.39,0-26.08,2.98-26.08,8.94c0,1.44,1.44,2.79,4.31,4.07
			c4.94,2.25,7.61,3.5,8.01,3.79c2.87,1.86,4.31,4.12,4.31,6.8c0,6.86-3.08,15.79-9.21,26.76c-5.51,9.87-12.37,18.07-20.57,24.61
			c-10.28,8.15-21.15,12.24-32.63,12.24c-11.48,0-20.45-3.18-26.95-9.52c-6.14-5.97-9.21-13.81-9.21-23.53
			c0-8.77,2.64-18.36,7.91-28.75c3.33-6.44,8.89-15.16,16.7-26.18c1.89-2.62,3.18-3.94,3.87-3.94c1.32,0,1.98,0.64,1.98,1.93
			c0,0.57-0.42,1.56-1.28,2.92c-6.09,9.48-10.19,16.36-12.31,20.61c-4.36,8.77-6.54,16.4-6.54,22.89c0,6.39,3.13,11.9,9.38,16.52
			c6.02,4.48,12.93,6.73,20.74,6.73c8.38,0,16.35-1.66,23.92-4.97s13.86-7.81,18.85-13.49c3.84-4.4,5.76-7.73,5.76-10.01
			c0-0.95-1.64-1.91-4.9-2.86c-4.31-1.2-7.32-2.37-9.04-3.5c-3.26-2.2-4.9-5.32-4.9-9.37c0-8.11,3.74-16.38,11.19-24.82
			c8.03-9.01,16.72-13.52,26.08-13.52h4.82L889.58,583.66L889.58,583.66z M843.11,679.16c0,1.81-1.89,4.58-5.68,8.33
			c-3.79,3.74-6.74,5.61-8.86,5.61c-5.51-2.62-8.64-3.94-9.38-3.94c-0.52,0-2.23,1.56-5.16,4.65c-2.92,3.09-5.31,4.65-7.15,4.65
			c-1.49,0-4.11-0.74-7.83-2.21c-3.9-1.57-5.85-2.84-5.85-3.79c2.92-3.14,5.22-5.56,6.88-7.22c4.12-4.14,6.58-6.22,7.32-6.22
			c0.41,0.14,2.42,1.05,6.02,2.72c2.92,1.34,4.77,2.01,5.51,2.01c0.63,0,2.77-1.81,6.41-5.41s6.02-5.39,7.1-5.39
			C839.56,675.4,843.11,677.48,843.11,679.16z"/>
		<path class="st1" d="M949.41,583.66h-5.85c-14.98,0-23.55-9.37-25.73-28.11c-5.34,9.11-9.72,15.59-13.17,19.46
			c-5.16,5.76-10.36,8.66-15.59,8.66h-3.36v-15.67h2.33c5.8,0,11.33-2.05,16.62-6.15c4.58-3.53,8.11-7.83,10.58-12.88
			c1.72-3.48,2.87-8.71,3.45-15.67c0.34-5.44,0.66-10.87,0.95-16.31c0.63-8.64,1.66-14.4,3.09-17.31l12.64-15.23
			c-6.66,26.03-9.99,48.09-9.99,66.16c0,11.58,5.97,17.38,17.9,17.38h6.12V583.66z"/>
		<path class="st1" d="M1020.07,532.87c0,0.57-1.94,5.07-5.85,13.52c-5.92,1.49-10.9,3.72-14.98,6.73
			c-8.03,6.05-16.09,12.14-24.19,18.24c-11.93,8.2-20.94,12.31-27.03,12.31h-3.62v-15.67h2.67c10.85,0,18.16-2.05,21.94-6.15
			c-8.72-5.53-13.08-8.77-13.08-9.72c0-3.01,5.48-8.93,16.43-17.78c10.95-8.84,18.48-13.27,22.55-13.27c2.01,0,4.28,0.83,6.8,2.47
			c2.52,1.64,3.79,3.28,3.79,4.9c0,1.99-1.18,3.01-3.53,3.01c-0.98,0-2.3-0.34-3.96-1.03c-1.66-0.69-2.84-1.03-3.53-1.03
			c-2.42,0-5.83,1.17-10.24,3.5c-4.65,2.43-6.96,4.51-6.96,6.22c0,1.44,1.4,2.74,4.21,3.94c2.64,1.2,5.36,1.79,8.18,1.79
			c5.8,0,11.07-1.4,15.84-4.23c1.2-0.71,5.39-3.84,12.56-9.37C1019.24,531.36,1019.9,531.92,1020.07,532.87z"/>
		<path class="st1" d="M1188.51,595.11c0,2.1-0.74,4.43-2.23,7.02c-7.86,13.54-18.16,24.17-30.9,31.9
			c-14.06,8.54-30.07,12.8-48.03,12.8c-12.17,0-22.84-3.53-32.02-10.58c-9.35-7.25-14.03-15.87-14.03-25.9
			c0-17.65,6.12-33.86,18.32-48.63c10.21-12.39,25.64-24.68,46.3-36.83c-1.94-2.48-8.86-3.72-20.74-3.72
			c-3.33,0-6.8,1.45-10.41,4.36c-0.46,0.39-3.09,2.92-7.91,7.66c-1.39-0.42-2.23-1.15-2.59-2.15c9.3-13.88,19.42-20.81,30.38-20.81
			c5.39,0,11.68,0.42,18.85,1.28c10.21,1.2,15.32,2.81,15.32,4.87c0,3.35-2.76,6.51-8.27,9.52c-8.49,4.58-16.99,9.18-25.48,13.81
			c-8.27,4.92-15.6,10.75-22.03,17.53c-12.46,13.07-18.68,24.65-18.68,34.77c0,11.34,4.94,20.37,14.81,27.05
			c9.23,6.25,20.83,9.37,34.77,9.37c25.76,0,44.58-9.37,56.46-28.11c2.98-4.72,5.27-7.08,6.88-7.08
			C1188.1,593.16,1188.51,593.81,1188.51,595.11z M1143.49,575.94c0,1.67-5.05,5.41-15.15,11.22c-2.81-2.81-4.97-4.87-6.46-6.15
			c-3.38-2.86-5.85-4.29-7.4-4.29v-0.79l15.75-12.44C1139.08,569.02,1143.49,573.17,1143.49,575.94z"/>
		<path class="st1" d="M1227.07,583.66h-6.88c-6.31,0-11.12-1.74-14.45-5.22c-3.04-3.14-4.56-7.42-4.56-12.81
			c0-11.31,1.15-24.39,3.45-39.27c2.64-16.74,5.85-29.3,9.64-37.7l2.67,0.29c-4.48,19.03-6.71,35.85-6.71,50.51
			c0,19.03,3.33,28.53,9.99,28.53h6.88v15.67H1227.07z"/>
		<path class="st1" d="M1296.61,539.81c0,1.28-1.77,3.06-5.34,5.29c-2.98,1.72-5.97,3.47-8.94,5.22
			c-9.42,6.78-18.85,13.54-28.31,20.32c-12.85,8.67-23.21,13.02-31.07,13.02h-0.69v-15.67h1.2c9.99,0,18.8-1.81,26.42-5.44
			c6.2-2.96,13.2-8.01,21-15.16c-2.52-1.86-6.44-3.62-11.75-5.29c-5.31-1.67-9.62-2.5-12.95-2.5c-1.15,0-4.07,1.23-8.77,3.72
			c-0.86,0-1.28-0.47-1.28-1.44c0-2.67,2.43-5.31,7.32-7.95c4.48-2.43,8.4-3.65,11.78-3.65c3.84,0,9.33,1.37,16.48,4.11
			c7.15,2.74,12.73,4.11,16.74,4.11c1.32,0,2.57-0.14,3.74-0.42c1.18-0.29,1.99-0.42,2.45-0.42
			C1295.95,537.67,1296.61,538.38,1296.61,539.81z"/>
		<path class="st1" d="M1455.83,583.66h-4.21c-17.39,0-26.08,2.98-26.08,8.94c0,1.44,1.44,2.79,4.31,4.07
			c4.94,2.25,7.61,3.5,8.01,3.79c2.87,1.86,4.31,4.12,4.31,6.8c0,6.86-3.08,15.79-9.21,26.76c-5.51,9.87-12.37,18.07-20.57,24.61
			c-10.28,8.15-21.15,12.24-32.63,12.24c-11.48,0-20.45-3.18-26.95-9.52c-6.14-5.97-9.21-13.81-9.21-23.53
			c0-8.77,2.64-18.36,7.91-28.75c3.33-6.44,8.89-15.16,16.7-26.18c1.89-2.62,3.18-3.94,3.87-3.94c1.32,0,1.98,0.64,1.98,1.93
			c0,0.57-0.42,1.56-1.28,2.92c-6.09,9.48-10.19,16.36-12.31,20.61c-4.36,8.77-6.54,16.4-6.54,22.89c0,6.39,3.13,11.9,9.38,16.52
			c6.02,4.48,12.93,6.73,20.74,6.73c8.38,0,16.35-1.66,23.92-4.97s13.86-7.81,18.85-13.49c3.84-4.4,5.76-7.73,5.76-10.01
			c0-0.95-1.64-1.91-4.9-2.86c-4.31-1.2-7.32-2.37-9.04-3.5c-3.26-2.2-4.9-5.32-4.9-9.37c0-8.11,3.74-16.38,11.19-24.82
			c8.03-9.01,16.72-13.52,26.08-13.52h4.82L1455.83,583.66L1455.83,583.66z M1409.36,679.16c0,1.81-1.89,4.58-5.68,8.33
			c-3.79,3.74-6.74,5.61-8.86,5.61c-5.51-2.62-8.64-3.94-9.38-3.94c-0.52,0-2.23,1.56-5.16,4.65c-2.92,3.09-5.31,4.65-7.15,4.65
			c-1.49,0-4.11-0.74-7.83-2.21c-3.9-1.57-5.85-2.84-5.85-3.79c2.92-3.14,5.22-5.56,6.88-7.22c4.12-4.14,6.58-6.22,7.32-6.22
			c0.41,0.14,2.42,1.05,6.02,2.72c2.92,1.34,4.77,2.01,5.51,2.01c0.63,0,2.77-1.81,6.41-5.41s6.02-5.39,7.1-5.39
			C1405.8,675.4,1409.36,677.48,1409.36,679.16z"/>
		<path class="st1" d="M1515.66,583.66h-5.85c-14.98,0-23.55-9.37-25.73-28.11c-5.34,9.11-9.72,15.59-13.17,19.46
			c-5.16,5.76-10.36,8.66-15.59,8.66h-3.36v-15.67h2.33c5.8,0,11.33-2.05,16.62-6.15c4.58-3.53,8.11-7.83,10.58-12.88
			c1.72-3.48,2.87-8.71,3.45-15.67c0.34-5.44,0.66-10.87,0.95-16.31c0.63-8.64,1.66-14.4,3.09-17.31l12.64-15.23
			c-6.66,26.03-9.99,48.09-9.99,66.16c0,11.58,5.97,17.38,17.9,17.38h6.12L1515.66,583.66L1515.66,583.66z"/>
		<path class="st1" d="M1586.32,532.87c0,0.57-1.94,5.07-5.85,13.52c-5.92,1.49-10.9,3.72-14.98,6.73
			c-8.03,6.05-16.09,12.14-24.19,18.24c-11.93,8.2-20.94,12.31-27.03,12.31h-3.62v-15.67h2.67c10.85,0,18.16-2.05,21.94-6.15
			c-8.72-5.53-13.08-8.77-13.08-9.72c0-3.01,5.48-8.93,16.43-17.78c10.95-8.84,18.48-13.27,22.55-13.27c2.01,0,4.28,0.83,6.8,2.47
			c2.52,1.64,3.79,3.28,3.79,4.9c0,1.99-1.18,3.01-3.53,3.01c-0.98,0-2.3-0.34-3.96-1.03c-1.66-0.69-2.84-1.03-3.53-1.03
			c-2.42,0-5.83,1.17-10.24,3.5c-4.65,2.43-6.96,4.51-6.96,6.22c0,1.44,1.4,2.74,4.21,3.94c2.64,1.2,5.36,1.79,8.18,1.79
			c5.8,0,11.07-1.4,15.84-4.23c1.2-0.71,5.39-3.84,12.56-9.37C1585.47,531.36,1586.13,531.92,1586.32,532.87z"/>
	</g>
</g>
</svg>
